<svg width="518" height="360" viewBox="0 0 518 360" fill="none" xmlns="http://www.w3.org/2000/svg">
<g filter="url(#filter0_d_1_1537)">
<path d="M30.9393 36.0959C30.9393 29.261 36.4801 23.7202 43.3151 23.7202H474.564C481.399 23.7202 486.939 29.261 486.939 36.096V309.344C486.939 316.179 481.399 321.72 474.564 321.72H43.3151C36.4801 321.72 30.9393 316.179 30.9393 309.344V36.0959Z" fill="white"/>
</g>
<path d="M50.523 141.22C50.523 139.057 52.2766 137.303 54.4397 137.303H252.231C254.394 137.303 256.148 139.057 256.148 141.22V164.72C256.148 166.883 254.394 168.637 252.231 168.637H54.4397C52.2766 168.637 50.523 166.883 50.523 164.72V141.22Z" fill="white"/>
<path d="M54.44 137.792H252.231C254.124 137.792 255.659 139.327 255.659 141.22V164.72C255.659 166.613 254.124 168.147 252.231 168.147H54.44C52.5474 168.147 51.0124 166.613 51.0123 164.72V141.22C51.0123 139.327 52.5473 137.792 54.44 137.792Z" stroke="black" stroke-opacity="0.06" stroke-width="0.979167"/>
<path d="M275.731 141.22C275.731 139.057 277.485 137.303 279.648 137.303H477.439C479.603 137.303 481.356 139.057 481.356 141.22V164.72C481.356 166.883 479.603 168.637 477.439 168.637H279.648C277.485 168.637 275.731 166.883 275.731 164.72V141.22Z" fill="white"/>
<path d="M279.648 137.792H477.439C479.332 137.792 480.867 139.327 480.867 141.22V164.72C480.867 166.613 479.332 168.147 477.439 168.147H279.648C277.756 168.147 276.221 166.613 276.22 164.72V141.22C276.22 139.327 277.755 137.792 279.648 137.792Z" stroke="black" stroke-opacity="0.06" stroke-width="0.979167"/>
<path d="M466.525 150.245L463.722 153.242L460.92 150.245C460.797 150.118 460.632 150.047 460.461 150.049C460.29 150.051 460.126 150.124 460.005 150.253C459.884 150.383 459.815 150.558 459.814 150.741C459.812 150.924 459.878 151.1 459.997 151.232L463.261 154.723C463.383 154.854 463.549 154.928 463.722 154.928C463.896 154.928 464.062 154.854 464.184 154.723L467.448 151.232C467.51 151.168 467.56 151.091 467.594 151.006C467.628 150.92 467.646 150.829 467.647 150.736C467.648 150.643 467.631 150.551 467.599 150.466C467.566 150.38 467.517 150.302 467.456 150.236C467.395 150.171 467.322 150.119 467.242 150.084C467.161 150.049 467.075 150.031 466.989 150.032C466.902 150.033 466.816 150.052 466.737 150.088C466.657 150.125 466.585 150.178 466.525 150.245Z" fill="#A7A7A7"/>
<path d="M56.0455 121.495V126.512L52.5205 121.495H51.2868V129.72H52.9083V124.691L56.4333 129.72H57.667V121.495H56.0455ZM64.4803 129.72H66.2428L63.3523 121.495H61.343L58.4643 129.72H60.215L60.7085 128.239H63.9868L64.4803 129.72ZM61.2255 126.724L62.3535 123.363L63.4815 126.724H61.2255ZM75.0901 121.495H73.4216L71.0716 125.384L68.7099 121.495H67.0414V129.72H68.6629V124.397L70.9776 128.204H71.1656L73.4804 124.385V129.72H75.0901V121.495ZM78.2442 128.169V126.324H81.3579V124.797H78.2442V123.046H81.6517V121.495H76.6227V129.72H81.7104V128.169H78.2442Z" fill="#B1B1B1"/>
<path d="M281.935 121.495H275.884V123.046H278.093V129.72H279.714V123.046H281.935V121.495ZM289.35 121.495H287.517L285.731 124.926L283.945 121.495H282.112L284.92 126.512V129.72H286.53V126.512L289.35 121.495ZM293.205 121.495H290.138V129.72H291.76V127.017H293.205C294.791 127.017 296.013 125.795 296.013 124.256C296.013 122.717 294.791 121.495 293.205 121.495ZM293.205 125.502H291.76V123.011H293.205C293.898 123.011 294.403 123.539 294.403 124.256C294.403 124.961 293.898 125.502 293.205 125.502ZM298.69 128.169V126.324H301.804V124.797H298.69V123.046H302.098V121.495H297.069V129.72H302.157V128.169H298.69Z" fill="#B1B1B1"/>
<circle cx="42.6891" cy="35.4699" r="3.91667" fill="#E5E5EB"/>
<circle cx="54.4397" cy="35.4699" r="3.91667" fill="#E5E5EB"/>
<circle cx="66.1897" cy="35.4699" r="3.91667" fill="#E5E5EB"/>
<g filter="url(#filter1_d_1_1537)">
<path d="M30.9393 46.7202H486.939V93.7202H30.9393V46.7202Z" fill="white"/>
</g>
<rect x="447.856" y="68.7617" width="23.5" height="3.91667" rx="1.95833" fill="#ABD2FF"/>
<rect x="420.44" y="68.7617" width="23.5" height="3.91667" rx="1.95833" fill="#FFD3AB"/>
<path d="M82.604 75.0515C84.1197 75.0515 85.4475 74.2877 86.1407 73.1127L84.7425 72.302C84.3547 73.0187 83.544 73.4652 82.604 73.4652C80.9942 73.4652 79.9367 72.349 79.9367 70.7745C79.9367 69.1882 80.9942 68.072 82.604 68.072C83.544 68.072 84.343 68.5185 84.7425 69.247L86.1407 68.4362C85.4357 67.2612 84.108 66.4975 82.604 66.4975C80.113 66.4975 78.327 68.3657 78.327 70.7745C78.327 73.1715 80.113 75.0515 82.604 75.0515ZM88.6738 70.0225V69.012H87.1581V74.887H88.6738V72.0787C88.6738 70.845 89.6726 70.4925 90.4598 70.5865V68.8945C89.7196 68.8945 88.9793 69.2235 88.6738 70.0225ZM92.4091 72.5722H96.8388C96.8741 72.3725 96.8976 72.1727 96.8976 71.9495C96.8976 70.2222 95.6638 68.8475 93.9248 68.8475C92.0801 68.8475 90.8228 70.1987 90.8228 71.9495C90.8228 73.7002 92.0683 75.0515 94.0423 75.0515C95.1703 75.0515 96.0516 74.5932 96.6038 73.7942L95.3818 73.0892C95.1233 73.43 94.6533 73.6767 94.0658 73.6767C93.2668 73.6767 92.6206 73.3477 92.4091 72.5722ZM92.3856 71.3972C92.5618 70.6452 93.1141 70.2105 93.9248 70.2105C94.5593 70.2105 95.1938 70.5512 95.3818 71.3972H92.3856ZM102.375 69.012V69.7052C101.952 69.1765 101.317 68.8475 100.46 68.8475C98.8968 68.8475 97.6043 70.1987 97.6043 71.9495C97.6043 73.7002 98.8968 75.0515 100.46 75.0515C101.317 75.0515 101.952 74.7225 102.375 74.1937V74.887H103.891V69.012H102.375ZM100.742 73.6062C99.8133 73.6062 99.1201 72.9365 99.1201 71.9495C99.1201 70.9625 99.8133 70.2927 100.742 70.2927C101.682 70.2927 102.375 70.9625 102.375 71.9495C102.375 72.9365 101.682 73.6062 100.742 73.6062ZM108.626 70.469V69.012H107.298V67.367L105.782 67.8252V69.012H104.76V70.469H105.782V72.913C105.782 74.4992 106.499 75.122 108.626 74.887V73.5122C107.756 73.5592 107.298 73.5475 107.298 72.913V70.469H108.626ZM110.791 72.5722H115.221C115.256 72.3725 115.28 72.1727 115.28 71.9495C115.28 70.2222 114.046 68.8475 112.307 68.8475C110.462 68.8475 109.205 70.1987 109.205 71.9495C109.205 73.7002 110.451 75.0515 112.425 75.0515C113.553 75.0515 114.434 74.5932 114.986 73.7942L113.764 73.0892C113.506 73.43 113.036 73.6767 112.448 73.6767C111.649 73.6767 111.003 73.3477 110.791 72.5722ZM110.768 71.3972C110.944 70.6452 111.496 70.2105 112.307 70.2105C112.942 70.2105 113.576 70.5512 113.764 71.3972H110.768ZM122.695 68.8475C121.837 68.8475 121.214 69.1647 120.791 69.7052V69.012H119.276V77.237H120.791V74.1937C121.214 74.7342 121.837 75.0515 122.695 75.0515C124.269 75.0515 125.562 73.7002 125.562 71.9495C125.562 70.1987 124.269 68.8475 122.695 68.8475ZM122.413 73.6062C121.485 73.6062 120.791 72.9365 120.791 71.9495C120.791 70.9625 121.485 70.2927 122.413 70.2927C123.353 70.2927 124.046 70.9625 124.046 71.9495C124.046 72.9365 123.353 73.6062 122.413 73.6062ZM128.147 70.0225V69.012H126.631V74.887H128.147V72.0787C128.147 70.845 129.145 70.4925 129.933 70.5865V68.8945C129.192 68.8945 128.452 69.2235 128.147 70.0225ZM133.397 75.0515C135.125 75.0515 136.511 73.7002 136.511 71.9495C136.511 70.1987 135.125 68.8475 133.397 68.8475C131.67 68.8475 130.295 70.1987 130.295 71.9495C130.295 73.7002 131.67 75.0515 133.397 75.0515ZM133.397 73.571C132.504 73.571 131.811 72.9012 131.811 71.9495C131.811 70.9977 132.504 70.328 133.397 70.328C134.302 70.328 134.995 70.9977 134.995 71.9495C134.995 72.9012 134.302 73.571 133.397 73.571ZM140.997 68.8475C140.139 68.8475 139.516 69.1647 139.093 69.7052V69.012H137.578V77.237H139.093V74.1937C139.516 74.7342 140.139 75.0515 140.997 75.0515C142.571 75.0515 143.864 73.7002 143.864 71.9495C143.864 70.1987 142.571 68.8475 140.997 68.8475ZM140.715 73.6062C139.787 73.6062 139.093 72.9365 139.093 71.9495C139.093 70.9625 139.787 70.2927 140.715 70.2927C141.655 70.2927 142.348 70.9625 142.348 71.9495C142.348 72.9365 141.655 73.6062 140.715 73.6062ZM146.214 72.5722H150.643C150.679 72.3725 150.702 72.1727 150.702 71.9495C150.702 70.2222 149.468 68.8475 147.729 68.8475C145.885 68.8475 144.627 70.1987 144.627 71.9495C144.627 73.7002 145.873 75.0515 147.847 75.0515C148.975 75.0515 149.856 74.5932 150.408 73.7942L149.186 73.0892C148.928 73.43 148.458 73.6767 147.87 73.6767C147.071 73.6767 146.425 73.3477 146.214 72.5722ZM146.19 71.3972C146.366 70.6452 146.919 70.2105 147.729 70.2105C148.364 70.2105 148.998 70.5512 149.186 71.3972H146.19ZM153.276 70.0225V69.012H151.76V74.887H153.276V72.0787C153.276 70.845 154.275 70.4925 155.062 70.5865V68.8945C154.322 68.8945 153.581 69.2235 153.276 70.0225ZM159.47 70.469V69.012H158.142V67.367L156.626 67.8252V69.012H155.604V70.469H156.626V72.913C156.626 74.4992 157.343 75.122 159.47 74.887V73.5122C158.6 73.5592 158.142 73.5475 158.142 72.913V70.469H159.47ZM164.495 69.012L163.191 72.96L161.663 69.012H160.006L162.415 74.699C162.133 75.4862 161.71 75.8387 160.876 75.827V77.237C162.368 77.3192 163.367 76.579 163.978 74.887L166.116 69.012H164.495Z" fill="#656565"/>
<path d="M57.0828 76.3018L58.4536 74.9309L55.2223 71.6997L65.2098 71.6997L65.2098 69.7413L55.2223 69.7413L58.4536 66.5101L57.0828 65.1393L51.5015 70.7205L57.0828 76.3018Z" fill="#87BEFF"/>
<path d="M30.9393 191.72H486.939V309.344C486.939 316.179 481.399 321.72 474.564 321.72H43.3151C36.4801 321.72 30.9393 316.179 30.9393 309.344V191.72Z" fill="#F9F9FB"/>
<path d="M56.8049 251.995C56.0896 252.236 55.4088 252.357 54.7624 252.357C54.1198 252.357 53.548 252.209 53.0469 251.915C52.5497 251.616 52.1615 251.215 51.8823 250.71C51.603 250.201 51.4634 249.624 51.4634 248.977C51.4634 248.006 51.779 247.199 52.4101 246.556C53.045 245.914 53.81 245.592 54.705 245.592C55.3667 245.592 56.0667 245.717 56.8049 245.965V246.992C56.059 246.652 55.3916 246.482 54.8026 246.482C54.4124 246.482 54.0452 246.579 53.701 246.774C53.3568 246.965 53.0909 247.266 52.9035 247.675C52.7161 248.084 52.6224 248.505 52.6224 248.937C52.6224 249.515 52.8021 250.065 53.1617 250.589C53.525 251.113 54.093 251.375 54.8657 251.375C55.099 251.375 55.3285 251.36 55.5541 251.33C55.7798 251.295 56.1967 251.175 56.8049 250.968V251.995ZM61.1078 252.357C60.1899 252.357 59.4555 252.037 58.9047 251.398C58.3539 250.756 58.0786 249.947 58.0786 248.972C58.0786 247.996 58.3539 247.189 58.9047 246.55C59.4555 245.912 60.1899 245.592 61.1078 245.592C62.022 245.592 62.7545 245.912 63.3052 246.55C63.856 247.189 64.1314 247.996 64.1314 248.972C64.1314 249.947 63.856 250.756 63.3052 251.398C62.7545 252.037 62.022 252.357 61.1078 252.357ZM61.1078 251.467C61.6778 251.467 62.131 251.245 62.4676 250.802C62.8042 250.358 62.9725 249.748 62.9725 248.972C62.9725 248.199 62.8042 247.591 62.4676 247.147C62.131 246.703 61.6778 246.482 61.1078 246.482C60.5341 246.482 60.079 246.703 59.7424 247.147C59.4058 247.591 59.2375 248.199 59.2375 248.972C59.2375 249.748 59.4058 250.358 59.7424 250.802C60.079 251.245 60.5341 251.467 61.1078 251.467ZM65.5256 252.179V245.77H66.5927V247.17C66.8987 246.677 67.2678 246.29 67.7 246.011C68.1322 245.732 68.5644 245.592 68.9966 245.592C69.3753 245.592 69.7195 245.694 70.0294 245.896C70.3392 246.095 70.5553 246.357 70.6777 246.682C70.8039 247.007 70.867 247.646 70.867 248.599V252.179H69.7999V248.467C69.7999 247.851 69.7693 247.445 69.7081 247.25C69.6507 247.051 69.5417 246.889 69.381 246.763C69.2242 246.636 69.0521 246.573 68.8647 246.573C68.4898 246.573 68.0863 246.751 67.6541 247.107C67.2257 247.463 66.8719 247.908 66.5927 248.444V252.179H65.5256ZM72.657 251.84V250.71C73.0854 250.989 73.5387 251.186 74.0168 251.301C74.4949 251.412 74.9003 251.467 75.2331 251.467C75.7724 251.467 76.1606 251.381 76.3978 251.209C76.6349 251.033 76.7535 250.815 76.7535 250.555C76.7535 250.383 76.698 250.236 76.5871 250.113C76.4762 249.991 76.2008 249.84 75.7609 249.66L75.3937 249.511L74.6536 249.218C73.8581 248.908 73.357 248.622 73.1505 248.358C72.9401 248.098 72.8349 247.78 72.8349 247.405C72.8349 246.877 73.0376 246.443 73.4431 246.103C73.8523 245.762 74.514 245.592 75.4282 245.592C76.1128 245.592 76.7611 245.692 77.3731 245.891V246.86C76.6693 246.608 76.0076 246.482 75.388 246.482C74.9367 246.482 74.5829 246.562 74.3266 246.723C74.0742 246.879 73.9479 247.076 73.9479 247.313C73.9479 247.543 74.0589 247.727 74.2807 247.864C74.4987 248.002 74.8544 248.161 75.3478 248.34L76.0707 248.604C76.7324 248.845 77.1972 249.107 77.4649 249.39C77.7326 249.673 77.8665 250.027 77.8665 250.452C77.8665 251.006 77.6523 251.463 77.2239 251.823C76.7994 252.179 76.1186 252.357 75.1815 252.357C74.3629 252.357 73.5215 252.184 72.657 251.84ZM84.998 251.921C84.4969 252.131 84.1336 252.255 83.9079 252.293C83.6822 252.336 83.4642 252.357 83.2538 252.357C82.8063 252.357 82.3971 252.271 82.0261 252.098C81.655 251.926 81.3739 251.672 81.1827 251.335C80.9953 250.999 80.9016 250.479 80.9016 249.775V247.193H79.3008V246.304H80.9016V243.722H81.9687V246.304H84.8201V247.193H81.9687V249.758C81.9687 250.274 82.0299 250.639 82.1523 250.853C82.2747 251.064 82.4372 251.219 82.64 251.318C82.8465 251.418 83.0894 251.467 83.3686 251.467C83.8849 251.467 84.4281 251.305 84.998 250.98V251.921ZM143.151 252.179V245.77H144.218V247.17C144.524 246.677 144.894 246.29 145.326 246.011C145.758 245.732 146.19 245.592 146.622 245.592C147.001 245.592 147.345 245.694 147.655 245.896C147.965 246.095 148.181 246.357 148.303 246.682C148.43 247.007 148.493 247.646 148.493 248.599V252.179H147.426V248.467C147.426 247.851 147.395 247.445 147.334 247.25C147.276 247.051 147.167 246.889 147.007 246.763C146.85 246.636 146.678 246.573 146.49 246.573C146.116 246.573 145.712 246.751 145.28 247.107C144.851 247.463 144.498 247.908 144.218 248.444V252.179H143.151ZM155.538 251.754C154.685 252.16 153.878 252.362 153.117 252.362C152.539 252.362 152.023 252.219 151.568 251.932C151.113 251.645 150.747 251.236 150.472 250.704C150.201 250.169 150.065 249.597 150.065 248.989C150.065 248.404 150.195 247.841 150.455 247.302C150.715 246.763 151.078 246.344 151.545 246.046C152.012 245.743 152.532 245.592 153.106 245.592C153.867 245.592 154.477 245.864 154.936 246.407C155.399 246.95 155.63 247.788 155.63 248.92V249.149H151.212C151.212 249.593 151.304 249.999 151.488 250.366C151.675 250.733 151.92 251.008 152.222 251.192C152.524 251.375 152.868 251.467 153.255 251.467C153.943 251.467 154.704 251.238 155.538 250.779V251.754ZM151.275 248.352H154.471V248.197C154.471 247.673 154.343 247.256 154.087 246.946C153.83 246.636 153.488 246.482 153.06 246.482C152.627 246.482 152.253 246.64 151.935 246.958C151.621 247.271 151.402 247.736 151.275 248.352ZM157.535 252.179L156.491 245.77H157.483L158.091 249.672L158.252 250.578L158.407 249.672L159.428 245.77H160.386L161.539 249.672L161.74 250.578L161.872 249.672L162.486 245.77H163.306L162.268 252.179H161.27L160.042 248.054L159.847 247.147H159.818L159.64 248.048L158.573 252.179H157.535Z" fill="#1EA4A9"/>
<path d="M95.2448 252.179V247.193H93.822V246.304H95.2448V246.005C95.2448 245.16 95.3404 244.535 95.5317 244.129C95.7229 243.724 96.0174 243.391 96.4152 243.131C96.8168 242.871 97.3466 242.741 98.0045 242.741C98.5017 242.741 99.0066 242.792 99.5191 242.896V243.911C98.9645 243.728 98.473 243.636 98.0446 243.636C97.7042 243.636 97.404 243.699 97.1439 243.825C96.8838 243.951 96.6791 244.158 96.53 244.445C96.3846 244.728 96.312 245.21 96.312 245.891V246.304H98.8536V247.193H96.312V252.179H95.2448ZM102.606 252.179V246.659H100.827V245.77H103.673V251.289H105.457V252.179H102.606ZM102.428 243.458C102.428 243.217 102.51 243.037 102.675 242.919C102.839 242.8 102.994 242.741 103.139 242.741C103.289 242.741 103.445 242.8 103.61 242.919C103.774 243.037 103.857 243.217 103.857 243.458C103.857 243.695 103.774 243.873 103.61 243.992C103.445 244.11 103.289 244.169 103.139 244.169C102.994 244.169 102.839 244.11 102.675 243.992C102.51 243.873 102.428 243.695 102.428 243.458ZM109.588 252.179V243.814H107.672V242.919H110.655V251.289H112.658V252.179H109.588ZM120.254 251.754C119.401 252.16 118.594 252.362 117.833 252.362C117.255 252.362 116.739 252.219 116.284 251.932C115.828 251.645 115.463 251.236 115.188 250.704C114.916 250.169 114.78 249.597 114.78 248.989C114.78 248.404 114.91 247.841 115.17 247.302C115.431 246.763 115.794 246.344 116.261 246.046C116.727 245.743 117.247 245.592 117.821 245.592C118.582 245.592 119.192 245.864 119.651 246.407C120.114 246.95 120.346 247.788 120.346 248.92V249.149H115.928C115.928 249.593 116.02 249.999 116.203 250.366C116.391 250.733 116.635 251.008 116.938 251.192C117.24 251.375 117.584 251.467 117.97 251.467C118.659 251.467 119.42 251.238 120.254 250.779V251.754ZM115.991 248.352H119.187V248.197C119.187 247.673 119.058 247.256 118.802 246.946C118.546 246.636 118.204 246.482 117.775 246.482C117.343 246.482 116.968 246.64 116.651 246.958C116.337 247.271 116.117 247.736 115.991 248.352Z" fill="#5F9315"/>
<path d="M134.786 247.641V248.53H128.556V247.641H134.786ZM134.786 249.643V250.532H128.556V249.643H134.786Z" fill="#C82864"/>
<path d="M171.792 252.179H170.679L173.421 243.274H174.597L177.357 252.179H176.135L175.527 250.222H172.394L171.792 252.179ZM172.67 249.333H175.269L174.196 245.954L173.943 245.059L173.72 245.954L172.67 249.333ZM183.789 252.075C183.123 252.324 182.526 252.448 181.999 252.448C181.302 252.448 180.662 252.263 180.077 251.892C179.491 251.517 179.036 250.962 178.711 250.228C178.386 249.49 178.223 248.656 178.223 247.727C178.223 246.805 178.384 245.977 178.705 245.242C179.027 244.508 179.48 243.951 180.065 243.573C180.65 243.194 181.295 243.005 181.999 243.005C182.526 243.005 183.123 243.129 183.789 243.378V244.433C183.173 244.078 182.561 243.9 181.953 243.9C181.494 243.9 181.073 244.057 180.69 244.37C180.312 244.684 180.006 245.145 179.773 245.753C179.539 246.357 179.423 247.015 179.423 247.727C179.423 248.449 179.543 249.117 179.784 249.729C180.025 250.341 180.333 250.8 180.708 251.106C181.083 251.408 181.498 251.559 181.953 251.559C182.557 251.559 183.169 251.381 183.789 251.026V252.075ZM185.504 251.989V250.899C186.422 251.335 187.256 251.553 188.006 251.553C188.319 251.553 188.619 251.494 188.906 251.375C189.193 251.253 189.409 251.079 189.555 250.853C189.704 250.628 189.778 250.383 189.778 250.119C189.778 249.809 189.677 249.52 189.474 249.253C189.272 248.981 188.891 248.683 188.333 248.358L187.747 248.019L187.156 247.681C186.116 247.065 185.596 246.3 185.596 245.386C185.596 244.716 185.827 244.154 186.29 243.699C186.757 243.24 187.483 243.01 188.47 243.01C189.105 243.01 189.719 243.102 190.312 243.286V244.278C189.658 244.026 189.021 243.9 188.401 243.9C187.908 243.9 187.508 244.03 187.202 244.29C186.9 244.55 186.749 244.864 186.749 245.231C186.749 245.594 186.866 245.896 187.099 246.137C187.332 246.378 187.631 246.6 187.994 246.803L188.442 247.073L188.998 247.411L189.469 247.686C190.444 248.283 190.932 249.033 190.932 249.935C190.932 250.624 190.681 251.215 190.18 251.708C189.679 252.202 188.876 252.448 187.77 252.448C187.418 252.448 187.082 252.418 186.761 252.357C186.443 252.299 186.024 252.177 185.504 251.989ZM195.183 252.448C194.927 252.448 194.707 252.357 194.523 252.173C194.34 251.989 194.248 251.769 194.248 251.513C194.248 251.253 194.34 251.033 194.523 250.853C194.711 250.67 194.93 250.578 195.183 250.578C195.435 250.578 195.653 250.67 195.837 250.853C196.024 251.033 196.118 251.253 196.118 251.513C196.118 251.769 196.026 251.989 195.843 252.173C195.659 252.357 195.439 252.448 195.183 252.448ZM202.24 252.448C201.23 252.448 200.457 252.024 199.922 251.175C199.39 250.322 199.124 249.172 199.124 247.727C199.124 246.285 199.39 245.139 199.922 244.29C200.457 243.437 201.23 243.01 202.24 243.01C203.253 243.01 204.026 243.437 204.558 244.29C205.089 245.139 205.355 246.285 205.355 247.727C205.355 249.172 205.089 250.322 204.558 251.175C204.026 252.024 203.253 252.448 202.24 252.448ZM202.24 251.553C202.798 251.553 203.263 251.238 203.634 250.607C204.009 249.972 204.196 249.012 204.196 247.727C204.196 246.441 204.009 245.483 203.634 244.852C203.263 244.217 202.798 243.9 202.24 243.9C201.681 243.9 201.215 244.217 200.84 244.852C200.469 245.483 200.283 246.441 200.283 247.727C200.283 249.012 200.469 249.972 200.84 250.607C201.215 251.238 201.681 251.553 202.24 251.553ZM207.65 247.21C207.979 246.675 208.371 246.271 208.826 246C209.281 245.728 209.7 245.592 210.083 245.592C210.618 245.592 211.1 245.824 211.529 246.286C211.957 246.749 212.171 247.451 212.171 248.392C212.171 249.134 212.028 249.798 211.741 250.383C211.458 250.964 211.079 251.425 210.605 251.766C210.131 252.102 209.543 252.271 208.843 252.271C208.645 252.271 208.339 252.249 207.925 252.207C207.864 252.2 207.772 252.19 207.65 252.179H206.583V242.919H207.65V247.21ZM207.65 248.478V251.226C208.036 251.326 208.392 251.375 208.717 251.375C209.364 251.375 209.907 251.123 210.347 250.618C210.79 250.109 211.012 249.415 211.012 248.536C211.012 247.897 210.892 247.417 210.651 247.095C210.41 246.774 210.136 246.614 209.83 246.614C209.497 246.614 209.13 246.782 208.729 247.118C208.331 247.455 207.971 247.908 207.65 248.478ZM213.818 254.692V253.693C214.414 253.869 214.917 253.957 215.327 253.957C215.682 253.957 215.984 253.894 216.233 253.768C216.482 253.646 216.675 253.437 216.813 253.143C216.954 252.848 217.025 252.336 217.025 251.605V246.659H214.305V245.77H218.092V251.404C218.092 252.49 217.964 253.244 217.708 253.665C217.451 254.089 217.141 254.393 216.778 254.577C216.415 254.76 215.918 254.852 215.286 254.852C214.831 254.852 214.342 254.799 213.818 254.692ZM216.847 243.458C216.847 243.217 216.927 243.037 217.088 242.919C217.252 242.8 217.409 242.741 217.558 242.741C217.708 242.741 217.862 242.8 218.023 242.919C218.188 243.037 218.27 243.217 218.27 243.458C218.27 243.695 218.188 243.873 218.023 243.992C217.862 244.11 217.708 244.169 217.558 244.169C217.409 244.169 217.252 244.11 217.088 243.992C216.927 243.873 216.847 243.695 216.847 243.458ZM226.107 251.754C225.254 252.16 224.447 252.362 223.686 252.362C223.108 252.362 222.592 252.219 222.137 251.932C221.682 251.645 221.316 251.236 221.041 250.704C220.769 250.169 220.634 249.597 220.634 248.989C220.634 248.404 220.764 247.841 221.024 247.302C221.284 246.763 221.647 246.344 222.114 246.046C222.58 245.743 223.101 245.592 223.674 245.592C224.436 245.592 225.046 245.864 225.505 246.407C225.967 246.95 226.199 247.788 226.199 248.92V249.149H221.781C221.781 249.593 221.873 249.999 222.056 250.366C222.244 250.733 222.489 251.008 222.791 251.192C223.093 251.375 223.437 251.467 223.824 251.467C224.512 251.467 225.273 251.238 226.107 250.779V251.754ZM221.844 248.352H225.04V248.197C225.04 247.673 224.912 247.256 224.655 246.946C224.399 246.636 224.057 246.482 223.628 246.482C223.196 246.482 222.821 246.64 222.504 246.958C222.19 247.271 221.97 247.736 221.844 248.352ZM233.227 251.995C232.512 252.236 231.831 252.357 231.185 252.357C230.542 252.357 229.97 252.209 229.469 251.915C228.972 251.616 228.584 251.215 228.304 250.71C228.025 250.201 227.886 249.624 227.886 248.977C227.886 248.006 228.201 247.199 228.832 246.556C229.467 245.914 230.232 245.592 231.127 245.592C231.789 245.592 232.489 245.717 233.227 245.965V246.992C232.481 246.652 231.814 246.482 231.225 246.482C230.835 246.482 230.467 246.579 230.123 246.774C229.779 246.965 229.513 247.266 229.326 247.675C229.138 248.084 229.044 248.505 229.044 248.937C229.044 249.515 229.224 250.065 229.584 250.589C229.947 251.113 230.515 251.375 231.288 251.375C231.521 251.375 231.751 251.36 231.976 251.33C232.202 251.295 232.619 251.175 233.227 250.968V251.995ZM240.249 251.921C239.748 252.131 239.385 252.255 239.159 252.293C238.934 252.336 238.716 252.357 238.505 252.357C238.058 252.357 237.649 252.271 237.278 252.098C236.907 251.926 236.625 251.672 236.434 251.335C236.247 250.999 236.153 250.479 236.153 249.775V247.193H234.552V246.304H236.153V243.722H237.22V246.304H240.072V247.193H237.22V249.758C237.22 250.274 237.281 250.639 237.404 250.853C237.526 251.064 237.689 251.219 237.891 251.318C238.098 251.418 238.341 251.467 238.62 251.467C239.136 251.467 239.68 251.305 240.249 250.98V251.921ZM247.209 254.313C246.149 254.248 245.256 253.948 244.529 253.412C243.803 252.881 243.221 252.161 242.785 251.255C242.353 250.349 242.137 249.44 242.137 248.53C242.137 247.619 242.353 246.711 242.785 245.805C243.221 244.898 243.803 244.179 244.529 243.647C245.256 243.112 246.149 242.81 247.209 242.741V243.636C246.409 243.709 245.721 243.978 245.143 244.445C244.57 244.908 244.118 245.499 243.789 246.218C243.46 246.937 243.296 247.707 243.296 248.53C243.296 249.352 243.46 250.123 243.789 250.842C244.118 251.561 244.57 252.152 245.143 252.615C245.721 253.078 246.409 253.347 247.209 253.424V254.313ZM347.812 242.741C348.872 242.81 349.765 243.112 350.492 243.647C351.218 244.179 351.798 244.898 352.23 245.805C352.666 246.711 352.884 247.619 352.884 248.53C352.884 249.44 352.666 250.349 352.23 251.255C351.798 252.161 351.218 252.881 350.492 253.412C349.765 253.948 348.872 254.248 347.812 254.313V253.424C348.612 253.347 349.298 253.078 349.872 252.615C350.45 252.152 350.903 251.561 351.232 250.842C351.565 250.123 351.731 249.352 351.731 248.53C351.731 247.707 351.565 246.937 351.232 246.218C350.903 245.499 350.45 244.908 349.872 244.445C349.298 243.978 348.612 243.709 347.812 243.636V242.741Z" fill="#5A5A5A"/>
<path d="M252.034 246.482H251.265L250.663 242.919H252.619L252.034 246.482ZM257.553 252.179V247.193H256.13V246.304H257.553V246.005C257.553 245.16 257.649 244.535 257.84 244.129C258.031 243.724 258.326 243.391 258.724 243.131C259.125 242.871 259.655 242.741 260.313 242.741C260.81 242.741 261.315 242.792 261.827 242.896V243.911C261.273 243.728 260.781 243.636 260.353 243.636C260.013 243.636 259.712 243.699 259.452 243.825C259.192 243.951 258.987 244.158 258.838 244.445C258.693 244.728 258.62 245.21 258.62 245.891V246.304H261.162V247.193H258.62V252.179H257.553ZM264.914 252.179V246.659H263.136V245.77H265.981V251.289H267.766V252.179H264.914ZM264.736 243.458C264.736 243.217 264.819 243.037 264.983 242.919C265.147 242.8 265.302 242.741 265.448 242.741C265.597 242.741 265.754 242.8 265.918 242.919C266.083 243.037 266.165 243.217 266.165 243.458C266.165 243.695 266.083 243.873 265.918 243.992C265.754 244.11 265.597 244.169 265.448 244.169C265.302 244.169 265.147 244.11 264.983 243.992C264.819 243.873 264.736 243.695 264.736 243.458ZM271.896 252.179V243.814H269.98V242.919H272.964V251.289H274.966V252.179H271.896ZM282.562 251.754C281.709 252.16 280.902 252.362 280.141 252.362C279.563 252.362 279.047 252.219 278.592 251.932C278.137 251.645 277.771 251.236 277.496 250.704C277.224 250.169 277.089 249.597 277.089 248.989C277.089 248.404 277.219 247.841 277.479 247.302C277.739 246.763 278.102 246.344 278.569 246.046C279.036 245.743 279.556 245.592 280.129 245.592C280.891 245.592 281.501 245.864 281.96 246.407C282.422 246.95 282.654 247.788 282.654 248.92V249.149H278.236C278.236 249.593 278.328 249.999 278.512 250.366C278.699 250.733 278.944 251.008 279.246 251.192C279.548 251.375 279.892 251.467 280.279 251.467C280.967 251.467 281.728 251.238 282.562 250.779V251.754ZM278.299 248.352H281.495V248.197C281.495 247.673 281.367 247.256 281.111 246.946C280.854 246.636 280.512 246.482 280.084 246.482C279.651 246.482 279.277 246.64 278.959 246.958C278.645 247.271 278.425 247.736 278.299 248.352ZM289.642 252.075C288.976 252.324 288.38 252.448 287.852 252.448C287.156 252.448 286.515 252.263 285.93 251.892C285.345 251.517 284.89 250.962 284.564 250.228C284.239 249.49 284.077 248.656 284.077 247.727C284.077 246.805 284.237 245.977 284.559 245.242C284.88 244.508 285.333 243.951 285.918 243.573C286.504 243.194 287.148 243.005 287.852 243.005C288.38 243.005 288.976 243.129 289.642 243.378V244.433C289.026 244.078 288.414 243.9 287.806 243.9C287.347 243.9 286.926 244.057 286.544 244.37C286.165 244.684 285.859 245.145 285.626 245.753C285.392 246.357 285.276 247.015 285.276 247.727C285.276 248.449 285.396 249.117 285.637 249.729C285.878 250.341 286.186 250.8 286.561 251.106C286.936 251.408 287.351 251.559 287.806 251.559C288.41 251.559 289.022 251.381 289.642 251.026V252.075ZM293.985 252.357C293.067 252.357 292.333 252.037 291.782 251.398C291.231 250.756 290.956 249.947 290.956 248.972C290.956 247.996 291.231 247.189 291.782 246.55C292.333 245.912 293.067 245.592 293.985 245.592C294.899 245.592 295.632 245.912 296.182 246.55C296.733 247.189 297.009 247.996 297.009 248.972C297.009 249.947 296.733 250.756 296.182 251.398C295.632 252.037 294.899 252.357 293.985 252.357ZM293.985 251.467C294.555 251.467 295.008 251.245 295.345 250.802C295.681 250.358 295.85 249.748 295.85 248.972C295.85 248.199 295.681 247.591 295.345 247.147C295.008 246.703 294.555 246.482 293.985 246.482C293.411 246.482 292.956 246.703 292.62 247.147C292.283 247.591 292.115 248.199 292.115 248.972C292.115 249.748 292.283 250.358 292.62 250.802C292.956 251.245 293.411 251.467 293.985 251.467ZM298.403 252.179V245.77H299.47V247.17C299.776 246.677 300.145 246.29 300.577 246.011C301.009 245.732 301.442 245.592 301.874 245.592C302.253 245.592 302.597 245.694 302.907 245.896C303.216 246.095 303.432 246.357 303.555 246.682C303.681 247.007 303.744 247.646 303.744 248.599V252.179H302.677V248.467C302.677 247.851 302.646 247.445 302.585 247.25C302.528 247.051 302.419 246.889 302.258 246.763C302.101 246.636 301.929 246.573 301.742 246.573C301.367 246.573 300.964 246.751 300.531 247.107C300.103 247.463 299.749 247.908 299.47 248.444V252.179H298.403ZM310.818 251.921C310.317 252.131 309.954 252.255 309.728 252.293C309.503 252.336 309.285 252.357 309.074 252.357C308.627 252.357 308.217 252.271 307.846 252.098C307.475 251.926 307.194 251.672 307.003 251.335C306.816 250.999 306.722 250.479 306.722 249.775V247.193H305.121V246.304H306.722V243.722H307.789V246.304H310.64V247.193H307.789V249.758C307.789 250.274 307.85 250.639 307.973 250.853C308.095 251.064 308.258 251.219 308.46 251.318C308.667 251.418 308.91 251.467 309.189 251.467C309.705 251.467 310.248 251.305 310.818 250.98V251.921ZM317.846 251.754C316.994 252.16 316.187 252.362 315.425 252.362C314.848 252.362 314.331 252.219 313.876 251.932C313.421 251.645 313.056 251.236 312.78 250.704C312.509 250.169 312.373 249.597 312.373 248.989C312.373 248.404 312.503 247.841 312.763 247.302C313.023 246.763 313.387 246.344 313.853 246.046C314.32 245.743 314.84 245.592 315.414 245.592C316.175 245.592 316.785 245.864 317.244 246.407C317.707 246.95 317.938 247.788 317.938 248.92V249.149H313.521C313.521 249.593 313.612 249.999 313.796 250.366C313.983 250.733 314.228 251.008 314.53 251.192C314.832 251.375 315.177 251.467 315.563 251.467C316.252 251.467 317.013 251.238 317.846 250.779V251.754ZM313.584 248.352H316.779V248.197C316.779 247.673 316.651 247.256 316.395 246.946C316.139 246.636 315.796 246.482 315.368 246.482C314.936 246.482 314.561 246.64 314.243 246.958C313.93 247.271 313.71 247.736 313.584 248.352ZM319.573 252.179V245.77H320.641V247.17C320.947 246.677 321.316 246.29 321.748 246.011C322.18 245.732 322.612 245.592 323.044 245.592C323.423 245.592 323.767 245.694 324.077 245.896C324.387 246.095 324.603 246.357 324.726 246.682C324.852 247.007 324.915 247.646 324.915 248.599V252.179H323.848V248.467C323.848 247.851 323.817 247.445 323.756 247.25C323.699 247.051 323.59 246.889 323.429 246.763C323.272 246.636 323.1 246.573 322.913 246.573C322.538 246.573 322.134 246.751 321.702 247.107C321.274 247.463 320.92 247.908 320.641 248.444V252.179H319.573ZM331.989 251.921C331.488 252.131 331.125 252.255 330.899 252.293C330.673 252.336 330.455 252.357 330.245 252.357C329.797 252.357 329.388 252.271 329.017 252.098C328.646 251.926 328.365 251.672 328.174 251.335C327.986 250.999 327.893 250.479 327.893 249.775V247.193H326.292V246.304H327.893V243.722H328.96V246.304H331.811V247.193H328.96V249.758C328.96 250.274 329.021 250.639 329.143 250.853C329.266 251.064 329.428 251.219 329.631 251.318C329.837 251.418 330.08 251.467 330.36 251.467C330.876 251.467 331.419 251.305 331.989 250.98V251.921ZM333.762 251.84V250.71C334.19 250.989 334.643 251.186 335.122 251.301C335.6 251.412 336.005 251.467 336.338 251.467C336.877 251.467 337.265 251.381 337.503 251.209C337.74 251.033 337.858 250.815 337.858 250.555C337.858 250.383 337.803 250.236 337.692 250.113C337.581 249.991 337.306 249.84 336.866 249.66L336.498 249.511L335.758 249.218C334.963 248.908 334.462 248.622 334.255 248.358C334.045 248.098 333.94 247.78 333.94 247.405C333.94 246.877 334.142 246.443 334.548 246.103C334.957 245.762 335.619 245.592 336.533 245.592C337.218 245.592 337.866 245.692 338.478 245.891V246.86C337.774 246.608 337.112 246.482 336.493 246.482C336.041 246.482 335.688 246.562 335.431 246.723C335.179 246.879 335.053 247.076 335.053 247.313C335.053 247.543 335.164 247.727 335.385 247.864C335.603 248.002 335.959 248.161 336.453 248.34L337.175 248.604C337.837 248.845 338.302 249.107 338.57 249.39C338.837 249.673 338.971 250.027 338.971 250.452C338.971 251.006 338.757 251.463 338.329 251.823C337.904 252.179 337.223 252.357 336.286 252.357C335.468 252.357 334.626 252.184 333.762 251.84ZM343.773 246.482H343.005L342.402 242.919H344.359L343.773 246.482Z" fill="#E38800"/>
<path d="M56.8049 295.078C56.0896 295.319 55.4088 295.439 54.7624 295.439C54.1198 295.439 53.548 295.292 53.0469 294.997C52.5497 294.699 52.1615 294.297 51.8823 293.792C51.603 293.284 51.4634 292.706 51.4634 292.06C51.4634 291.088 51.779 290.281 52.4101 289.639C53.045 288.996 53.81 288.675 54.705 288.675C55.3667 288.675 56.0667 288.799 56.8049 289.048V290.075C56.059 289.734 55.3916 289.564 54.8026 289.564C54.4124 289.564 54.0452 289.662 53.701 289.857C53.3568 290.048 53.0909 290.348 52.9035 290.757C52.7161 291.167 52.6224 291.587 52.6224 292.02C52.6224 292.597 52.8021 293.148 53.1617 293.672C53.525 294.196 54.093 294.458 54.8657 294.458C55.099 294.458 55.3285 294.443 55.5541 294.412C55.7798 294.378 56.1967 294.257 56.8049 294.051V295.078ZM61.1078 295.439C60.1899 295.439 59.4555 295.12 58.9047 294.481C58.3539 293.838 58.0786 293.029 58.0786 292.054C58.0786 291.079 58.3539 290.272 58.9047 289.633C59.4555 288.994 60.1899 288.675 61.1078 288.675C62.022 288.675 62.7545 288.994 63.3052 289.633C63.856 290.272 64.1314 291.079 64.1314 292.054C64.1314 293.029 63.856 293.838 63.3052 294.481C62.7545 295.12 62.022 295.439 61.1078 295.439ZM61.1078 294.55C61.6778 294.55 62.131 294.328 62.4676 293.884C62.8042 293.441 62.9725 292.831 62.9725 292.054C62.9725 291.281 62.8042 290.673 62.4676 290.23C62.131 289.786 61.6778 289.564 61.1078 289.564C60.5341 289.564 60.079 289.786 59.7424 290.23C59.4058 290.673 59.2375 291.281 59.2375 292.054C59.2375 292.831 59.4058 293.441 59.7424 293.884C60.079 294.328 60.5341 294.55 61.1078 294.55ZM65.5256 295.261V288.853H66.5927V290.253C66.8987 289.759 67.2678 289.373 67.7 289.094C68.1322 288.814 68.5644 288.675 68.9966 288.675C69.3753 288.675 69.7195 288.776 70.0294 288.979C70.3392 289.178 70.5553 289.44 70.6777 289.765C70.8039 290.09 70.867 290.729 70.867 291.681V295.261H69.7999V291.549C69.7999 290.933 69.7693 290.528 69.7081 290.333C69.6507 290.134 69.5417 289.971 69.381 289.845C69.2242 289.719 69.0521 289.656 68.8647 289.656C68.4898 289.656 68.0863 289.834 67.6541 290.189C67.2257 290.545 66.8719 290.991 66.5927 291.526V295.261H65.5256ZM72.657 294.923V293.792C73.0854 294.072 73.5387 294.269 74.0168 294.383C74.4949 294.494 74.9003 294.55 75.2331 294.55C75.7724 294.55 76.1606 294.464 76.3978 294.292C76.6349 294.116 76.7535 293.898 76.7535 293.638C76.7535 293.465 76.698 293.318 76.5871 293.196C76.4762 293.073 76.2008 292.922 75.7609 292.743L75.3937 292.593L74.6536 292.301C73.8581 291.991 73.357 291.704 73.1505 291.44C72.9401 291.18 72.8349 290.863 72.8349 290.488C72.8349 289.96 73.0376 289.526 73.4431 289.185C73.8523 288.845 74.514 288.675 75.4282 288.675C76.1128 288.675 76.7611 288.774 77.3731 288.973V289.943C76.6693 289.69 76.0076 289.564 75.388 289.564C74.9367 289.564 74.5829 289.644 74.3266 289.805C74.0742 289.962 73.9479 290.159 73.9479 290.396C73.9479 290.625 74.0589 290.809 74.2807 290.947C74.4987 291.084 74.8544 291.243 75.3478 291.423L76.0707 291.687C76.7324 291.928 77.1972 292.19 77.4649 292.473C77.7326 292.756 77.8665 293.11 77.8665 293.534C77.8665 294.089 77.6523 294.546 77.2239 294.906C76.7994 295.261 76.1186 295.439 75.1815 295.439C74.3629 295.439 73.5215 295.267 72.657 294.923ZM84.998 295.003C84.4969 295.213 84.1336 295.338 83.9079 295.376C83.6822 295.418 83.4642 295.439 83.2538 295.439C82.8063 295.439 82.3971 295.353 82.0261 295.181C81.655 295.009 81.3739 294.754 81.1827 294.418C80.9953 294.081 80.9016 293.561 80.9016 292.857V290.276H79.3008V289.386H80.9016V286.804H81.9687V289.386H84.8201V290.276H81.9687V292.84C81.9687 293.356 82.0299 293.722 82.1523 293.936C82.2747 294.146 82.4372 294.301 82.64 294.401C82.8465 294.5 83.0894 294.55 83.3686 294.55C83.8849 294.55 84.4281 294.387 84.998 294.062V295.003ZM143.151 295.261V288.853H144.218V290.253C144.524 289.759 144.894 289.373 145.326 289.094C145.758 288.814 146.19 288.675 146.622 288.675C147.001 288.675 147.345 288.776 147.655 288.979C147.965 289.178 148.181 289.44 148.303 289.765C148.43 290.09 148.493 290.729 148.493 291.681V295.261H147.426V291.549C147.426 290.933 147.395 290.528 147.334 290.333C147.276 290.134 147.167 289.971 147.007 289.845C146.85 289.719 146.678 289.656 146.49 289.656C146.116 289.656 145.712 289.834 145.28 290.189C144.851 290.545 144.498 290.991 144.218 291.526V295.261H143.151ZM155.538 294.837C154.685 295.242 153.878 295.445 153.117 295.445C152.539 295.445 152.023 295.301 151.568 295.015C151.113 294.728 150.747 294.318 150.472 293.787C150.201 293.251 150.065 292.679 150.065 292.071C150.065 291.486 150.195 290.924 150.455 290.385C150.715 289.845 151.078 289.426 151.545 289.128C152.012 288.826 152.532 288.675 153.106 288.675C153.867 288.675 154.477 288.946 154.936 289.49C155.399 290.033 155.63 290.87 155.63 292.002V292.232H151.212C151.212 292.676 151.304 293.081 151.488 293.448C151.675 293.815 151.92 294.091 152.222 294.274C152.524 294.458 152.868 294.55 153.255 294.55C153.943 294.55 154.704 294.32 155.538 293.861V294.837ZM151.275 291.434H154.471V291.28C154.471 290.756 154.343 290.339 154.087 290.029C153.83 289.719 153.488 289.564 153.06 289.564C152.627 289.564 152.253 289.723 151.935 290.04C151.621 290.354 151.402 290.819 151.275 291.434ZM157.535 295.261L156.491 288.853H157.483L158.091 292.754L158.252 293.661L158.407 292.754L159.428 288.853H160.386L161.539 292.754L161.74 293.661L161.872 292.754L162.486 288.853H163.306L162.268 295.261H161.27L160.042 291.136L159.847 290.23H159.818L159.64 291.13L158.573 295.261H157.535Z" fill="#1EA4A9"/>
<path d="M95.2448 295.261V290.276H93.822V289.386H95.2448V289.088C95.2448 288.243 95.3404 287.617 95.5317 287.212C95.7229 286.806 96.0174 286.474 96.4152 286.214C96.8168 285.953 97.3466 285.823 98.0045 285.823C98.5017 285.823 99.0066 285.875 99.5191 285.978V286.994C98.9645 286.81 98.473 286.718 98.0446 286.718C97.7042 286.718 97.404 286.781 97.1439 286.908C96.8838 287.034 96.6791 287.24 96.53 287.527C96.3846 287.81 96.312 288.292 96.312 288.973V289.386H98.8536V290.276H96.312V295.261H95.2448ZM102.606 295.261V289.742H100.827V288.853H103.673V294.372H105.457V295.261H102.606ZM102.428 286.541C102.428 286.3 102.51 286.12 102.675 286.001C102.839 285.883 102.994 285.823 103.139 285.823C103.289 285.823 103.445 285.883 103.61 286.001C103.774 286.12 103.857 286.3 103.857 286.541C103.857 286.778 103.774 286.956 103.61 287.074C103.445 287.193 103.289 287.252 103.139 287.252C102.994 287.252 102.839 287.193 102.675 287.074C102.51 286.956 102.428 286.778 102.428 286.541ZM109.588 295.261V286.896H107.672V286.001H110.655V294.372H112.658V295.261H109.588ZM120.254 294.837C119.401 295.242 118.594 295.445 117.833 295.445C117.255 295.445 116.739 295.301 116.284 295.015C115.828 294.728 115.463 294.318 115.188 293.787C114.916 293.251 114.78 292.679 114.78 292.071C114.78 291.486 114.91 290.924 115.17 290.385C115.431 289.845 115.794 289.426 116.261 289.128C116.727 288.826 117.247 288.675 117.821 288.675C118.582 288.675 119.192 288.946 119.651 289.49C120.114 290.033 120.346 290.87 120.346 292.002V292.232H115.928C115.928 292.676 116.02 293.081 116.203 293.448C116.391 293.815 116.635 294.091 116.938 294.274C117.24 294.458 117.584 294.55 117.97 294.55C118.659 294.55 119.42 294.32 120.254 293.861V294.837ZM115.991 291.434H119.187V291.28C119.187 290.756 119.058 290.339 118.802 290.029C118.546 289.719 118.204 289.564 117.775 289.564C117.343 289.564 116.968 289.723 116.651 290.04C116.337 290.354 116.117 290.819 115.991 291.434Z" fill="#5F9315"/>
<path d="M134.786 290.723V291.612H128.556V290.723H134.786ZM134.786 292.725V293.615H128.556V292.725H134.786Z" fill="#C82864"/>
<path d="M171.792 295.261H170.679L173.421 286.357H174.597L177.357 295.261H176.135L175.527 293.305H172.394L171.792 295.261ZM172.67 292.416H175.269L174.196 289.036L173.943 288.141L173.72 289.036L172.67 292.416ZM183.789 295.158C183.123 295.407 182.526 295.531 181.999 295.531C181.302 295.531 180.662 295.345 180.077 294.974C179.491 294.6 179.036 294.045 178.711 293.311C178.386 292.572 178.223 291.739 178.223 290.809C178.223 289.887 178.384 289.059 178.705 288.325C179.027 287.59 179.48 287.034 180.065 286.655C180.65 286.277 181.295 286.087 181.999 286.087C182.526 286.087 183.123 286.212 183.789 286.46V287.516C183.173 287.16 182.561 286.982 181.953 286.982C181.494 286.982 181.073 287.139 180.69 287.453C180.312 287.766 180.006 288.227 179.773 288.835C179.539 289.44 179.423 290.098 179.423 290.809C179.423 291.532 179.543 292.199 179.784 292.811C180.025 293.423 180.333 293.882 180.708 294.188C181.083 294.491 181.498 294.642 181.953 294.642C182.557 294.642 183.169 294.464 183.789 294.108V295.158ZM185.504 295.072V293.982C186.422 294.418 187.256 294.636 188.006 294.636C188.319 294.636 188.619 294.577 188.906 294.458C189.193 294.336 189.409 294.162 189.555 293.936C189.704 293.71 189.778 293.465 189.778 293.202C189.778 292.892 189.677 292.603 189.474 292.335C189.272 292.064 188.891 291.765 188.333 291.44L187.747 291.102L187.156 290.763C186.116 290.147 185.596 289.382 185.596 288.468C185.596 287.799 185.827 287.237 186.29 286.781C186.757 286.323 187.483 286.093 188.47 286.093C189.105 286.093 189.719 286.185 190.312 286.368V287.361C189.658 287.109 189.021 286.982 188.401 286.982C187.908 286.982 187.508 287.112 187.202 287.372C186.9 287.633 186.749 287.946 186.749 288.313C186.749 288.677 186.866 288.979 187.099 289.22C187.332 289.461 187.631 289.683 187.994 289.885L188.442 290.155L188.998 290.494L189.469 290.769C190.444 291.366 190.932 292.115 190.932 293.018C190.932 293.706 190.681 294.297 190.18 294.791C189.679 295.284 188.876 295.531 187.77 295.531C187.418 295.531 187.082 295.5 186.761 295.439C186.443 295.382 186.024 295.259 185.504 295.072ZM195.183 295.531C194.927 295.531 194.707 295.439 194.523 295.255C194.34 295.072 194.248 294.852 194.248 294.596C194.248 294.336 194.34 294.116 194.523 293.936C194.711 293.752 194.93 293.661 195.183 293.661C195.435 293.661 195.653 293.752 195.837 293.936C196.024 294.116 196.118 294.336 196.118 294.596C196.118 294.852 196.026 295.072 195.843 295.255C195.659 295.439 195.439 295.531 195.183 295.531ZM202.24 295.531C201.23 295.531 200.457 295.106 199.922 294.257C199.39 293.404 199.124 292.255 199.124 290.809C199.124 289.367 199.39 288.222 199.922 287.372C200.457 286.519 201.23 286.093 202.24 286.093C203.253 286.093 204.026 286.519 204.558 287.372C205.089 288.222 205.355 289.367 205.355 290.809C205.355 292.255 205.089 293.404 204.558 294.257C204.026 295.106 203.253 295.531 202.24 295.531ZM202.24 294.636C202.798 294.636 203.263 294.32 203.634 293.689C204.009 293.054 204.196 292.094 204.196 290.809C204.196 289.524 204.009 288.566 203.634 287.935C203.263 287.3 202.798 286.982 202.24 286.982C201.681 286.982 201.215 287.3 200.84 287.935C200.469 288.566 200.283 289.524 200.283 290.809C200.283 292.094 200.469 293.054 200.84 293.689C201.215 294.32 201.681 294.636 202.24 294.636ZM207.65 290.293C207.979 289.757 208.371 289.354 208.826 289.082C209.281 288.811 209.7 288.675 210.083 288.675C210.618 288.675 211.1 288.906 211.529 289.369C211.957 289.832 212.171 290.534 212.171 291.475C212.171 292.217 212.028 292.88 211.741 293.465C211.458 294.047 211.079 294.508 210.605 294.848C210.131 295.185 209.543 295.353 208.843 295.353C208.645 295.353 208.339 295.332 207.925 295.29C207.864 295.282 207.772 295.273 207.65 295.261H206.583V286.001H207.65V290.293ZM207.65 291.561V294.309C208.036 294.408 208.392 294.458 208.717 294.458C209.364 294.458 209.907 294.206 210.347 293.701C210.79 293.192 211.012 292.498 211.012 291.618C211.012 290.979 210.892 290.499 210.651 290.178C210.41 289.857 210.136 289.696 209.83 289.696C209.497 289.696 209.13 289.864 208.729 290.201C208.331 290.538 207.971 290.991 207.65 291.561ZM213.818 297.774V296.776C214.414 296.952 214.917 297.04 215.327 297.04C215.682 297.04 215.984 296.977 216.233 296.85C216.482 296.728 216.675 296.52 216.813 296.225C216.954 295.931 217.025 295.418 217.025 294.688V289.742H214.305V288.853H218.092V294.487C218.092 295.573 217.964 296.326 217.708 296.747C217.451 297.172 217.141 297.476 216.778 297.659C216.415 297.843 215.918 297.935 215.286 297.935C214.831 297.935 214.342 297.881 213.818 297.774ZM216.847 286.541C216.847 286.3 216.927 286.12 217.088 286.001C217.252 285.883 217.409 285.823 217.558 285.823C217.708 285.823 217.862 285.883 218.023 286.001C218.188 286.12 218.27 286.3 218.27 286.541C218.27 286.778 218.188 286.956 218.023 287.074C217.862 287.193 217.708 287.252 217.558 287.252C217.409 287.252 217.252 287.193 217.088 287.074C216.927 286.956 216.847 286.778 216.847 286.541ZM226.107 294.837C225.254 295.242 224.447 295.445 223.686 295.445C223.108 295.445 222.592 295.301 222.137 295.015C221.682 294.728 221.316 294.318 221.041 293.787C220.769 293.251 220.634 292.679 220.634 292.071C220.634 291.486 220.764 290.924 221.024 290.385C221.284 289.845 221.647 289.426 222.114 289.128C222.58 288.826 223.101 288.675 223.674 288.675C224.436 288.675 225.046 288.946 225.505 289.49C225.967 290.033 226.199 290.87 226.199 292.002V292.232H221.781C221.781 292.676 221.873 293.081 222.056 293.448C222.244 293.815 222.489 294.091 222.791 294.274C223.093 294.458 223.437 294.55 223.824 294.55C224.512 294.55 225.273 294.32 226.107 293.861V294.837ZM221.844 291.434H225.04V291.28C225.04 290.756 224.912 290.339 224.655 290.029C224.399 289.719 224.057 289.564 223.628 289.564C223.196 289.564 222.821 289.723 222.504 290.04C222.19 290.354 221.97 290.819 221.844 291.434ZM233.227 295.078C232.512 295.319 231.831 295.439 231.185 295.439C230.542 295.439 229.97 295.292 229.469 294.997C228.972 294.699 228.584 294.297 228.304 293.792C228.025 293.284 227.886 292.706 227.886 292.06C227.886 291.088 228.201 290.281 228.832 289.639C229.467 288.996 230.232 288.675 231.127 288.675C231.789 288.675 232.489 288.799 233.227 289.048V290.075C232.481 289.734 231.814 289.564 231.225 289.564C230.835 289.564 230.467 289.662 230.123 289.857C229.779 290.048 229.513 290.348 229.326 290.757C229.138 291.167 229.044 291.587 229.044 292.02C229.044 292.597 229.224 293.148 229.584 293.672C229.947 294.196 230.515 294.458 231.288 294.458C231.521 294.458 231.751 294.443 231.976 294.412C232.202 294.378 232.619 294.257 233.227 294.051V295.078ZM240.249 295.003C239.748 295.213 239.385 295.338 239.159 295.376C238.934 295.418 238.716 295.439 238.505 295.439C238.058 295.439 237.649 295.353 237.278 295.181C236.907 295.009 236.625 294.754 236.434 294.418C236.247 294.081 236.153 293.561 236.153 292.857V290.276H234.552V289.386H236.153V286.804H237.22V289.386H240.072V290.276H237.22V292.84C237.22 293.356 237.281 293.722 237.404 293.936C237.526 294.146 237.689 294.301 237.891 294.401C238.098 294.5 238.341 294.55 238.62 294.55C239.136 294.55 239.68 294.387 240.249 294.062V295.003ZM247.209 297.396C246.149 297.33 245.256 297.03 244.529 296.495C243.803 295.963 243.221 295.244 242.785 294.338C242.353 293.431 242.137 292.523 242.137 291.612C242.137 290.702 242.353 289.794 242.785 288.887C243.221 287.981 243.803 287.262 244.529 286.73C245.256 286.194 246.149 285.892 247.209 285.823V286.718C246.409 286.791 245.721 287.061 245.143 287.527C244.57 287.99 244.118 288.581 243.789 289.3C243.46 290.019 243.296 290.79 243.296 291.612C243.296 292.435 243.46 293.205 243.789 293.924C244.118 294.644 244.57 295.234 245.143 295.697C245.721 296.16 246.409 296.43 247.209 296.506V297.396ZM347.812 285.823C348.872 285.892 349.765 286.194 350.492 286.73C351.218 287.262 351.798 287.981 352.23 288.887C352.666 289.794 352.884 290.702 352.884 291.612C352.884 292.523 352.666 293.431 352.23 294.338C351.798 295.244 351.218 295.963 350.492 296.495C349.765 297.03 348.872 297.33 347.812 297.396V296.506C348.612 296.43 349.298 296.16 349.872 295.697C350.45 295.234 350.903 294.644 351.232 293.924C351.565 293.205 351.731 292.435 351.731 291.612C351.731 290.79 351.565 290.019 351.232 289.3C350.903 288.581 350.45 287.99 349.872 287.527C349.298 287.061 348.612 286.791 347.812 286.718V285.823Z" fill="#5A5A5A"/>
<path d="M252.034 289.564H251.265L250.663 286.001H252.619L252.034 289.564ZM257.553 295.261V290.276H256.13V289.386H257.553V289.088C257.553 288.243 257.649 287.617 257.84 287.212C258.031 286.806 258.326 286.474 258.724 286.214C259.125 285.953 259.655 285.823 260.313 285.823C260.81 285.823 261.315 285.875 261.827 285.978V286.994C261.273 286.81 260.781 286.718 260.353 286.718C260.013 286.718 259.712 286.781 259.452 286.908C259.192 287.034 258.987 287.24 258.838 287.527C258.693 287.81 258.62 288.292 258.62 288.973V289.386H261.162V290.276H258.62V295.261H257.553ZM264.914 295.261V289.742H263.136V288.853H265.981V294.372H267.766V295.261H264.914ZM264.736 286.541C264.736 286.3 264.819 286.12 264.983 286.001C265.147 285.883 265.302 285.823 265.448 285.823C265.597 285.823 265.754 285.883 265.918 286.001C266.083 286.12 266.165 286.3 266.165 286.541C266.165 286.778 266.083 286.956 265.918 287.074C265.754 287.193 265.597 287.252 265.448 287.252C265.302 287.252 265.147 287.193 264.983 287.074C264.819 286.956 264.736 286.778 264.736 286.541ZM271.896 295.261V286.896H269.98V286.001H272.964V294.372H274.966V295.261H271.896ZM282.562 294.837C281.709 295.242 280.902 295.445 280.141 295.445C279.563 295.445 279.047 295.301 278.592 295.015C278.137 294.728 277.771 294.318 277.496 293.787C277.224 293.251 277.089 292.679 277.089 292.071C277.089 291.486 277.219 290.924 277.479 290.385C277.739 289.845 278.102 289.426 278.569 289.128C279.036 288.826 279.556 288.675 280.129 288.675C280.891 288.675 281.501 288.946 281.96 289.49C282.422 290.033 282.654 290.87 282.654 292.002V292.232H278.236C278.236 292.676 278.328 293.081 278.512 293.448C278.699 293.815 278.944 294.091 279.246 294.274C279.548 294.458 279.892 294.55 280.279 294.55C280.967 294.55 281.728 294.32 282.562 293.861V294.837ZM278.299 291.434H281.495V291.28C281.495 290.756 281.367 290.339 281.111 290.029C280.854 289.719 280.512 289.564 280.084 289.564C279.651 289.564 279.277 289.723 278.959 290.04C278.645 290.354 278.425 290.819 278.299 291.434ZM289.642 295.158C288.976 295.407 288.38 295.531 287.852 295.531C287.156 295.531 286.515 295.345 285.93 294.974C285.345 294.6 284.89 294.045 284.564 293.311C284.239 292.572 284.077 291.739 284.077 290.809C284.077 289.887 284.237 289.059 284.559 288.325C284.88 287.59 285.333 287.034 285.918 286.655C286.504 286.277 287.148 286.087 287.852 286.087C288.38 286.087 288.976 286.212 289.642 286.46V287.516C289.026 287.16 288.414 286.982 287.806 286.982C287.347 286.982 286.926 287.139 286.544 287.453C286.165 287.766 285.859 288.227 285.626 288.835C285.392 289.44 285.276 290.098 285.276 290.809C285.276 291.532 285.396 292.199 285.637 292.811C285.878 293.423 286.186 293.882 286.561 294.188C286.936 294.491 287.351 294.642 287.806 294.642C288.41 294.642 289.022 294.464 289.642 294.108V295.158ZM293.985 295.439C293.067 295.439 292.333 295.12 291.782 294.481C291.231 293.838 290.956 293.029 290.956 292.054C290.956 291.079 291.231 290.272 291.782 289.633C292.333 288.994 293.067 288.675 293.985 288.675C294.899 288.675 295.632 288.994 296.182 289.633C296.733 290.272 297.009 291.079 297.009 292.054C297.009 293.029 296.733 293.838 296.182 294.481C295.632 295.12 294.899 295.439 293.985 295.439ZM293.985 294.55C294.555 294.55 295.008 294.328 295.345 293.884C295.681 293.441 295.85 292.831 295.85 292.054C295.85 291.281 295.681 290.673 295.345 290.23C295.008 289.786 294.555 289.564 293.985 289.564C293.411 289.564 292.956 289.786 292.62 290.23C292.283 290.673 292.115 291.281 292.115 292.054C292.115 292.831 292.283 293.441 292.62 293.884C292.956 294.328 293.411 294.55 293.985 294.55ZM298.403 295.261V288.853H299.47V290.253C299.776 289.759 300.145 289.373 300.577 289.094C301.009 288.814 301.442 288.675 301.874 288.675C302.253 288.675 302.597 288.776 302.907 288.979C303.216 289.178 303.432 289.44 303.555 289.765C303.681 290.09 303.744 290.729 303.744 291.681V295.261H302.677V291.549C302.677 290.933 302.646 290.528 302.585 290.333C302.528 290.134 302.419 289.971 302.258 289.845C302.101 289.719 301.929 289.656 301.742 289.656C301.367 289.656 300.964 289.834 300.531 290.189C300.103 290.545 299.749 290.991 299.47 291.526V295.261H298.403ZM310.818 295.003C310.317 295.213 309.954 295.338 309.728 295.376C309.503 295.418 309.285 295.439 309.074 295.439C308.627 295.439 308.217 295.353 307.846 295.181C307.475 295.009 307.194 294.754 307.003 294.418C306.816 294.081 306.722 293.561 306.722 292.857V290.276H305.121V289.386H306.722V286.804H307.789V289.386H310.64V290.276H307.789V292.84C307.789 293.356 307.85 293.722 307.973 293.936C308.095 294.146 308.258 294.301 308.46 294.401C308.667 294.5 308.91 294.55 309.189 294.55C309.705 294.55 310.248 294.387 310.818 294.062V295.003ZM317.846 294.837C316.994 295.242 316.187 295.445 315.425 295.445C314.848 295.445 314.331 295.301 313.876 295.015C313.421 294.728 313.056 294.318 312.78 293.787C312.509 293.251 312.373 292.679 312.373 292.071C312.373 291.486 312.503 290.924 312.763 290.385C313.023 289.845 313.387 289.426 313.853 289.128C314.32 288.826 314.84 288.675 315.414 288.675C316.175 288.675 316.785 288.946 317.244 289.49C317.707 290.033 317.938 290.87 317.938 292.002V292.232H313.521C313.521 292.676 313.612 293.081 313.796 293.448C313.983 293.815 314.228 294.091 314.53 294.274C314.832 294.458 315.177 294.55 315.563 294.55C316.252 294.55 317.013 294.32 317.846 293.861V294.837ZM313.584 291.434H316.779V291.28C316.779 290.756 316.651 290.339 316.395 290.029C316.139 289.719 315.796 289.564 315.368 289.564C314.936 289.564 314.561 289.723 314.243 290.04C313.93 290.354 313.71 290.819 313.584 291.434ZM319.573 295.261V288.853H320.641V290.253C320.947 289.759 321.316 289.373 321.748 289.094C322.18 288.814 322.612 288.675 323.044 288.675C323.423 288.675 323.767 288.776 324.077 288.979C324.387 289.178 324.603 289.44 324.726 289.765C324.852 290.09 324.915 290.729 324.915 291.681V295.261H323.848V291.549C323.848 290.933 323.817 290.528 323.756 290.333C323.699 290.134 323.59 289.971 323.429 289.845C323.272 289.719 323.1 289.656 322.913 289.656C322.538 289.656 322.134 289.834 321.702 290.189C321.274 290.545 320.92 290.991 320.641 291.526V295.261H319.573ZM331.989 295.003C331.488 295.213 331.125 295.338 330.899 295.376C330.673 295.418 330.455 295.439 330.245 295.439C329.797 295.439 329.388 295.353 329.017 295.181C328.646 295.009 328.365 294.754 328.174 294.418C327.986 294.081 327.893 293.561 327.893 292.857V290.276H326.292V289.386H327.893V286.804H328.96V289.386H331.811V290.276H328.96V292.84C328.96 293.356 329.021 293.722 329.143 293.936C329.266 294.146 329.428 294.301 329.631 294.401C329.837 294.5 330.08 294.55 330.36 294.55C330.876 294.55 331.419 294.387 331.989 294.062V295.003ZM333.762 294.923V293.792C334.19 294.072 334.643 294.269 335.122 294.383C335.6 294.494 336.005 294.55 336.338 294.55C336.877 294.55 337.265 294.464 337.503 294.292C337.74 294.116 337.858 293.898 337.858 293.638C337.858 293.465 337.803 293.318 337.692 293.196C337.581 293.073 337.306 292.922 336.866 292.743L336.498 292.593L335.758 292.301C334.963 291.991 334.462 291.704 334.255 291.44C334.045 291.18 333.94 290.863 333.94 290.488C333.94 289.96 334.142 289.526 334.548 289.185C334.957 288.845 335.619 288.675 336.533 288.675C337.218 288.675 337.866 288.774 338.478 288.973V289.943C337.774 289.69 337.112 289.564 336.493 289.564C336.041 289.564 335.688 289.644 335.431 289.805C335.179 289.962 335.053 290.159 335.053 290.396C335.053 290.625 335.164 290.809 335.385 290.947C335.603 291.084 335.959 291.243 336.453 291.423L337.175 291.687C337.837 291.928 338.302 292.19 338.57 292.473C338.837 292.756 338.971 293.11 338.971 293.534C338.971 294.089 338.757 294.546 338.329 294.906C337.904 295.261 337.223 295.439 336.286 295.439C335.468 295.439 334.626 295.267 333.762 294.923ZM343.773 289.564H343.005L342.402 286.001H344.359L343.773 289.564Z" fill="#E38800"/>
<path d="M56.8049 273.537C56.0896 273.778 55.4088 273.898 54.7624 273.898C54.1198 273.898 53.548 273.751 53.0469 273.456C52.5497 273.158 52.1615 272.756 51.8823 272.251C51.603 271.743 51.4634 271.165 51.4634 270.519C51.4634 269.547 51.779 268.74 52.4101 268.098C53.045 267.455 53.81 267.134 54.705 267.134C55.3667 267.134 56.0667 267.258 56.8049 267.507V268.534C56.059 268.193 55.3916 268.023 54.8026 268.023C54.4124 268.023 54.0452 268.121 53.701 268.316C53.3568 268.507 53.0909 268.807 52.9035 269.216C52.7161 269.626 52.6224 270.046 52.6224 270.479C52.6224 271.056 52.8021 271.607 53.1617 272.131C53.525 272.655 54.093 272.917 54.8657 272.917C55.099 272.917 55.3285 272.902 55.5541 272.871C55.7798 272.837 56.1967 272.716 56.8049 272.51V273.537ZM61.1078 273.898C60.1899 273.898 59.4555 273.579 58.9047 272.94C58.3539 272.297 58.0786 271.488 58.0786 270.513C58.0786 269.538 58.3539 268.731 58.9047 268.092C59.4555 267.453 60.1899 267.134 61.1078 267.134C62.022 267.134 62.7545 267.453 63.3052 268.092C63.856 268.731 64.1314 269.538 64.1314 270.513C64.1314 271.488 63.856 272.297 63.3052 272.94C62.7545 273.579 62.022 273.898 61.1078 273.898ZM61.1078 273.009C61.6778 273.009 62.131 272.787 62.4676 272.343C62.8042 271.9 62.9725 271.29 62.9725 270.513C62.9725 269.74 62.8042 269.132 62.4676 268.689C62.131 268.245 61.6778 268.023 61.1078 268.023C60.5341 268.023 60.079 268.245 59.7424 268.689C59.4058 269.132 59.2375 269.74 59.2375 270.513C59.2375 271.29 59.4058 271.9 59.7424 272.343C60.079 272.787 60.5341 273.009 61.1078 273.009ZM65.5256 273.72V267.312H66.5927V268.712C66.8987 268.218 67.2678 267.832 67.7 267.553C68.1322 267.273 68.5644 267.134 68.9966 267.134C69.3753 267.134 69.7195 267.235 70.0294 267.438C70.3392 267.637 70.5553 267.899 70.6777 268.224C70.8039 268.549 70.867 269.188 70.867 270.14V273.72H69.7999V270.008C69.7999 269.392 69.7693 268.987 69.7081 268.792C69.6507 268.593 69.5417 268.43 69.381 268.304C69.2242 268.178 69.0521 268.115 68.8647 268.115C68.4898 268.115 68.0863 268.293 67.6541 268.648C67.2257 269.004 66.8719 269.45 66.5927 269.985V273.72H65.5256ZM72.657 273.382V272.251C73.0854 272.531 73.5387 272.728 74.0168 272.842C74.4949 272.953 74.9003 273.009 75.2331 273.009C75.7724 273.009 76.1606 272.923 76.3978 272.751C76.6349 272.575 76.7535 272.357 76.7535 272.097C76.7535 271.924 76.698 271.777 76.5871 271.655C76.4762 271.532 76.2008 271.381 75.7609 271.202L75.3937 271.052L74.6536 270.76C73.8581 270.45 73.357 270.163 73.1505 269.899C72.9401 269.639 72.8349 269.322 72.8349 268.947C72.8349 268.419 73.0376 267.985 73.4431 267.644C73.8523 267.304 74.514 267.134 75.4282 267.134C76.1128 267.134 76.7611 267.233 77.3731 267.432V268.402C76.6693 268.149 76.0076 268.023 75.388 268.023C74.9367 268.023 74.5829 268.103 74.3266 268.264C74.0742 268.421 73.9479 268.618 73.9479 268.855C73.9479 269.084 74.0589 269.268 74.2807 269.406C74.4987 269.543 74.8544 269.702 75.3478 269.882L76.0707 270.146C76.7324 270.387 77.1972 270.649 77.4649 270.932C77.7326 271.215 77.8665 271.569 77.8665 271.993C77.8665 272.548 77.6523 273.005 77.2239 273.365C76.7994 273.72 76.1186 273.898 75.1815 273.898C74.3629 273.898 73.5215 273.726 72.657 273.382ZM84.998 273.462C84.4969 273.672 84.1336 273.797 83.9079 273.835C83.6822 273.877 83.4642 273.898 83.2538 273.898C82.8063 273.898 82.3971 273.812 82.0261 273.64C81.655 273.468 81.3739 273.213 81.1827 272.877C80.9953 272.54 80.9016 272.02 80.9016 271.316V268.734H79.3008V267.845H80.9016V265.263H81.9687V267.845H84.8201V268.734H81.9687V271.299C81.9687 271.815 82.0299 272.181 82.1523 272.395C82.2747 272.605 82.4372 272.76 82.64 272.86C82.8465 272.959 83.0894 273.009 83.3686 273.009C83.8849 273.009 84.4281 272.846 84.998 272.521V273.462Z" fill="#1EA4A9"/>
<path d="M93.7531 273.72V267.312H94.8203V268.712C95.1262 268.218 95.4953 267.832 95.9276 267.553C96.3598 267.273 96.792 267.134 97.2242 267.134C97.6028 267.134 97.9471 267.235 98.2569 267.438C98.5667 267.637 98.7828 267.899 98.9052 268.224C99.0314 268.549 99.0945 269.188 99.0945 270.14V273.72H98.0274V270.008C98.0274 269.392 97.9968 268.987 97.9356 268.792C97.8782 268.593 97.7692 268.43 97.6086 268.304C97.4518 268.178 97.2796 268.115 97.0922 268.115C96.7174 268.115 96.3139 268.293 95.8817 268.648C95.4533 269.004 95.0995 269.45 94.8203 269.985V273.72H93.7531ZM106.14 273.296C105.287 273.701 104.48 273.904 103.719 273.904C103.141 273.904 102.625 273.76 102.17 273.474C101.715 273.187 101.349 272.777 101.074 272.246C100.802 271.71 100.667 271.138 100.667 270.53C100.667 269.945 100.797 269.383 101.057 268.844C101.317 268.304 101.68 267.885 102.147 267.587C102.613 267.285 103.134 267.134 103.707 267.134C104.468 267.134 105.079 267.405 105.538 267.948C106 268.492 106.232 269.329 106.232 270.461V270.691H101.814C101.814 271.135 101.906 271.54 102.089 271.907C102.277 272.274 102.522 272.55 102.824 272.733C103.126 272.917 103.47 273.009 103.857 273.009C104.545 273.009 105.306 272.779 106.14 272.32V273.296ZM101.877 269.893H105.073V269.739C105.073 269.215 104.945 268.798 104.688 268.488C104.432 268.178 104.09 268.023 103.661 268.023C103.229 268.023 102.854 268.182 102.537 268.499C102.223 268.813 102.003 269.278 101.877 269.893ZM108.137 273.72L107.092 267.312H108.085L108.693 271.213L108.854 272.12L109.009 271.213L110.03 267.312H110.988L112.141 271.213L112.342 272.12L112.474 271.213L113.088 267.312H113.908L112.87 273.72H111.872L110.644 269.595L110.449 268.689H110.42L110.242 269.589L109.175 273.72H108.137ZM117.557 273.99C116.547 273.99 115.775 273.565 115.239 272.716C114.708 271.863 114.442 270.714 114.442 269.268C114.442 267.826 114.708 266.681 115.239 265.831C115.775 264.978 116.547 264.552 117.557 264.552C118.571 264.552 119.343 264.978 119.875 265.831C120.407 266.681 120.673 267.826 120.673 269.268C120.673 270.714 120.407 271.863 119.875 272.716C119.343 273.565 118.571 273.99 117.557 273.99ZM117.557 273.095C118.116 273.095 118.58 272.779 118.951 272.148C119.326 271.513 119.514 270.553 119.514 269.268C119.514 267.983 119.326 267.025 118.951 266.394C118.58 265.759 118.116 265.441 117.557 265.441C116.999 265.441 116.532 265.759 116.157 266.394C115.786 267.025 115.601 267.983 115.601 269.268C115.601 270.553 115.786 271.513 116.157 272.148C116.532 272.779 116.999 273.095 117.557 273.095ZM122.967 268.752C123.296 268.216 123.688 267.813 124.144 267.541C124.599 267.27 125.018 267.134 125.4 267.134C125.936 267.134 126.418 267.365 126.846 267.828C127.274 268.291 127.488 268.993 127.488 269.934C127.488 270.676 127.345 271.339 127.058 271.924C126.775 272.506 126.396 272.967 125.922 273.307C125.448 273.644 124.861 273.812 124.161 273.812C123.962 273.812 123.656 273.791 123.243 273.749C123.182 273.741 123.09 273.732 122.967 273.72H121.9V264.46H122.967V268.752ZM122.967 270.02V272.768C123.354 272.867 123.709 272.917 124.035 272.917C124.681 272.917 125.224 272.665 125.664 272.16C126.108 271.651 126.33 270.957 126.33 270.077C126.33 269.438 126.209 268.958 125.968 268.637C125.727 268.316 125.454 268.155 125.148 268.155C124.815 268.155 124.448 268.323 124.046 268.66C123.648 268.997 123.289 269.45 122.967 270.02ZM129.135 276.233V275.235C129.732 275.411 130.235 275.499 130.644 275.499C131 275.499 131.302 275.436 131.55 275.309C131.799 275.187 131.992 274.979 132.13 274.684C132.271 274.39 132.342 273.877 132.342 273.146V268.201H129.623V267.312H133.409V272.946C133.409 274.032 133.281 274.785 133.025 275.206C132.769 275.631 132.459 275.935 132.096 276.118C131.732 276.302 131.235 276.394 130.604 276.394C130.149 276.394 129.659 276.34 129.135 276.233ZM132.164 265C132.164 264.759 132.245 264.579 132.405 264.46C132.57 264.342 132.727 264.282 132.876 264.282C133.025 264.282 133.18 264.342 133.341 264.46C133.505 264.579 133.587 264.759 133.587 265C133.587 265.237 133.505 265.415 133.341 265.533C133.18 265.652 133.025 265.711 132.876 265.711C132.727 265.711 132.57 265.652 132.405 265.533C132.245 265.415 132.164 265.237 132.164 265ZM141.424 273.296C140.571 273.701 139.764 273.904 139.003 273.904C138.426 273.904 137.909 273.76 137.454 273.474C136.999 273.187 136.634 272.777 136.358 272.246C136.087 271.71 135.951 271.138 135.951 270.53C135.951 269.945 136.081 269.383 136.341 268.844C136.601 268.304 136.965 267.885 137.431 267.587C137.898 267.285 138.418 267.134 138.992 267.134C139.753 267.134 140.363 267.405 140.822 267.948C141.285 268.492 141.516 269.329 141.516 270.461V270.691H137.098C137.098 271.135 137.19 271.54 137.374 271.907C137.561 272.274 137.806 272.55 138.108 272.733C138.41 272.917 138.755 273.009 139.141 273.009C139.829 273.009 140.591 272.779 141.424 272.32V273.296ZM137.162 269.893H140.357V269.739C140.357 269.215 140.229 268.798 139.973 268.488C139.717 268.178 139.374 268.023 138.946 268.023C138.514 268.023 138.139 268.182 137.821 268.499C137.508 268.813 137.288 269.278 137.162 269.893ZM148.544 273.537C147.829 273.778 147.148 273.898 146.502 273.898C145.859 273.898 145.287 273.751 144.786 273.456C144.289 273.158 143.901 272.756 143.622 272.251C143.343 271.743 143.203 271.165 143.203 270.519C143.203 269.547 143.518 268.74 144.15 268.098C144.785 267.455 145.549 267.134 146.445 267.134C147.106 267.134 147.806 267.258 148.544 267.507V268.534C147.799 268.193 147.131 268.023 146.542 268.023C146.152 268.023 145.785 268.121 145.44 268.316C145.096 268.507 144.83 268.807 144.643 269.216C144.456 269.626 144.362 270.046 144.362 270.479C144.362 271.056 144.542 271.607 144.901 272.131C145.265 272.655 145.833 272.917 146.605 272.917C146.838 272.917 147.068 272.902 147.294 272.871C147.519 272.837 147.936 272.716 148.544 272.51V273.537ZM155.567 273.462C155.066 273.672 154.702 273.797 154.477 273.835C154.251 273.877 154.033 273.898 153.823 273.898C153.375 273.898 152.966 273.812 152.595 273.64C152.224 273.468 151.943 273.213 151.752 272.877C151.564 272.54 151.47 272.02 151.47 271.316V268.734H149.87V267.845H151.47V265.263H152.538V267.845H155.389V268.734H152.538V271.299C152.538 271.815 152.599 272.181 152.721 272.395C152.844 272.605 153.006 272.76 153.209 272.86C153.415 272.959 153.658 273.009 153.937 273.009C154.454 273.009 154.997 272.846 155.567 272.521V273.462Z" fill="#5F9315"/>
<path d="M170.071 269.182V270.071H163.84V269.182H170.071ZM170.071 271.184V272.074H163.84V271.184H170.071Z" fill="#C82864"/>
<path d="M182.716 272.28C182.391 272.816 181.999 273.219 181.54 273.491C181.084 273.762 180.666 273.898 180.283 273.898C179.748 273.898 179.266 273.667 178.837 273.204C178.413 272.741 178.201 272.039 178.201 271.098C178.201 270.356 178.342 269.695 178.625 269.113C178.908 268.528 179.287 268.067 179.761 267.73C180.235 267.39 180.822 267.22 181.522 267.22C181.725 267.22 182.031 267.241 182.44 267.283C182.502 267.291 182.593 267.3 182.716 267.312V264.46H183.789V273.72H182.716V272.28ZM182.716 271.012V268.264C182.337 268.165 181.985 268.115 181.66 268.115C181.002 268.115 180.453 268.369 180.013 268.878C179.577 269.387 179.359 270.079 179.359 270.955C179.359 271.59 179.478 272.07 179.715 272.395C179.956 272.716 180.23 272.877 180.536 272.877C180.868 272.877 181.236 272.709 181.637 272.372C182.039 272.035 182.398 271.582 182.716 271.012ZM190.823 273.296C189.97 273.701 189.163 273.904 188.401 273.904C187.824 273.904 187.308 273.76 186.852 273.474C186.397 273.187 186.032 272.777 185.757 272.246C185.485 271.71 185.349 271.138 185.349 270.53C185.349 269.945 185.479 269.383 185.739 268.844C185.999 268.304 186.363 267.885 186.829 267.587C187.296 267.285 187.816 267.134 188.39 267.134C189.151 267.134 189.761 267.405 190.22 267.948C190.683 268.492 190.914 269.329 190.914 270.461V270.691H186.497C186.497 271.135 186.588 271.54 186.772 271.907C186.959 272.274 187.204 272.55 187.506 272.733C187.809 272.917 188.153 273.009 188.539 273.009C189.228 273.009 189.989 272.779 190.823 272.32V273.296ZM186.56 269.893H189.755V269.739C189.755 269.215 189.627 268.798 189.371 268.488C189.115 268.178 188.772 268.023 188.344 268.023C187.912 268.023 187.537 268.182 187.22 268.499C186.906 268.813 186.686 269.278 186.56 269.893ZM193.536 268.752C193.865 268.216 194.257 267.813 194.712 267.541C195.168 267.27 195.586 267.134 195.969 267.134C196.504 267.134 196.986 267.365 197.415 267.828C197.843 268.291 198.057 268.993 198.057 269.934C198.057 270.676 197.914 271.339 197.627 271.924C197.344 272.506 196.965 272.967 196.491 273.307C196.017 273.644 195.43 273.812 194.73 273.812C194.531 273.812 194.225 273.791 193.812 273.749C193.751 273.741 193.659 273.732 193.536 273.72V276.21H192.469V267.312H193.536V268.752ZM193.536 270.02V272.768C193.923 272.867 194.278 272.917 194.603 272.917C195.25 272.917 195.793 272.665 196.233 272.16C196.677 271.651 196.898 270.957 196.898 270.077C196.898 269.438 196.778 268.958 196.537 268.637C196.296 268.316 196.022 268.155 195.716 268.155C195.384 268.155 195.017 268.323 194.615 268.66C194.217 268.997 193.858 269.45 193.536 270.02ZM202.246 273.898C201.328 273.898 200.593 273.579 200.042 272.94C199.492 272.297 199.216 271.488 199.216 270.513C199.216 269.538 199.492 268.731 200.042 268.092C200.593 267.453 201.328 267.134 202.246 267.134C203.16 267.134 203.892 267.453 204.443 268.092C204.994 268.731 205.269 269.538 205.269 270.513C205.269 271.488 204.994 272.297 204.443 272.94C203.892 273.579 203.16 273.898 202.246 273.898ZM202.246 273.009C202.815 273.009 203.269 272.787 203.605 272.343C203.942 271.9 204.11 271.29 204.11 270.513C204.11 269.74 203.942 269.132 203.605 268.689C203.269 268.245 202.815 268.023 202.246 268.023C201.672 268.023 201.217 268.245 200.88 268.689C200.543 269.132 200.375 269.74 200.375 270.513C200.375 271.29 200.543 271.9 200.88 272.343C201.217 272.787 201.672 273.009 202.246 273.009ZM212.022 273.462C211.521 273.672 211.157 273.797 210.932 273.835C210.706 273.877 210.488 273.898 210.278 273.898C209.83 273.898 209.421 273.812 209.05 273.64C208.679 273.468 208.398 273.213 208.207 272.877C208.019 272.54 207.925 272.02 207.925 271.316V268.734H206.325V267.845H207.925V265.263H208.993V267.845H211.844V268.734H208.993V271.299C208.993 271.815 209.054 272.181 209.176 272.395C209.299 272.605 209.461 272.76 209.664 272.86C209.87 272.959 210.113 273.009 210.393 273.009C210.909 273.009 211.452 272.846 212.022 272.521V273.462ZM216.354 273.99C216.097 273.99 215.877 273.898 215.694 273.714C215.51 273.531 215.418 273.311 215.418 273.055C215.418 272.795 215.51 272.575 215.694 272.395C215.881 272.211 216.101 272.12 216.354 272.12C216.606 272.12 216.824 272.211 217.008 272.395C217.195 272.575 217.289 272.795 217.289 273.055C217.289 273.311 217.197 273.531 217.013 273.714C216.83 273.898 216.61 273.99 216.354 273.99ZM226.05 267.312V273.72H224.982V272.315C224.638 272.842 224.256 273.238 223.835 273.502C223.414 273.766 222.994 273.898 222.573 273.898C222.198 273.898 221.854 273.799 221.54 273.6C221.23 273.397 221.014 273.133 220.892 272.808C220.769 272.479 220.708 271.84 220.708 270.892V267.312H221.775V271.024C221.775 271.639 221.804 272.047 221.861 272.246C221.923 272.441 222.032 272.601 222.188 272.728C222.349 272.854 222.521 272.917 222.705 272.917C223.08 272.917 223.481 272.741 223.91 272.389C224.342 272.033 224.699 271.586 224.982 271.047V267.312H226.05ZM228.821 268.752C229.15 268.216 229.542 267.813 229.997 267.541C230.452 267.27 230.871 267.134 231.253 267.134C231.789 267.134 232.271 267.365 232.699 267.828C233.128 268.291 233.342 268.993 233.342 269.934C233.342 270.676 233.198 271.339 232.911 271.924C232.628 272.506 232.25 272.967 231.775 273.307C231.301 273.644 230.714 273.812 230.014 273.812C229.815 273.812 229.509 273.791 229.096 273.749C229.035 273.741 228.943 273.732 228.821 273.72V276.21H227.754V267.312H228.821V268.752ZM228.821 270.02V272.768C229.207 272.867 229.563 272.917 229.888 272.917C230.534 272.917 231.077 272.665 231.517 272.16C231.961 271.651 232.183 270.957 232.183 270.077C232.183 269.438 232.062 268.958 231.821 268.637C231.58 268.316 231.307 268.155 231.001 268.155C230.668 268.155 230.301 268.323 229.899 268.66C229.502 268.997 229.142 269.45 228.821 270.02ZM236.612 273.72V265.355H234.696V264.46H237.679V272.831H239.681V273.72H236.612ZM244.587 273.898C243.669 273.898 242.935 273.579 242.384 272.94C241.833 272.297 241.558 271.488 241.558 270.513C241.558 269.538 241.833 268.731 242.384 268.092C242.935 267.453 243.669 267.134 244.587 267.134C245.501 267.134 246.233 267.453 246.784 268.092C247.335 268.731 247.61 269.538 247.61 270.513C247.61 271.488 247.335 272.297 246.784 272.94C246.233 273.579 245.501 273.898 244.587 273.898ZM244.587 273.009C245.157 273.009 245.61 272.787 245.947 272.343C246.283 271.9 246.451 271.29 246.451 270.513C246.451 269.74 246.283 269.132 245.947 268.689C245.61 268.245 245.157 268.023 244.587 268.023C244.013 268.023 243.558 268.245 243.221 268.689C242.885 269.132 242.716 269.74 242.716 270.513C242.716 271.29 242.885 271.9 243.221 272.343C243.558 272.787 244.013 273.009 244.587 273.009ZM253.216 272.28C252.891 272.816 252.499 273.219 252.04 273.491C251.584 273.762 251.166 273.898 250.783 273.898C250.248 273.898 249.766 273.667 249.337 273.204C248.913 272.741 248.701 272.039 248.701 271.098C248.701 270.356 248.842 269.695 249.125 269.113C249.408 268.528 249.787 268.067 250.261 267.73C250.735 267.39 251.322 267.22 252.022 267.22C252.225 267.22 252.531 267.241 252.94 267.283C253.002 267.291 253.093 267.3 253.216 267.312H254.289V271.838C254.289 272.611 254.369 273.238 254.53 273.72H253.417C253.332 273.368 253.265 272.888 253.216 272.28ZM253.216 271.012V268.264C252.837 268.165 252.485 268.115 252.16 268.115C251.502 268.115 250.953 268.369 250.513 268.878C250.077 269.387 249.859 270.079 249.859 270.955C249.859 271.59 249.978 272.07 250.215 272.395C250.456 272.716 250.73 272.877 251.036 272.877C251.368 272.877 251.736 272.709 252.137 272.372C252.539 272.035 252.898 271.582 253.216 271.012ZM260.341 272.28C260.016 272.816 259.624 273.219 259.165 273.491C258.71 273.762 258.291 273.898 257.909 273.898C257.373 273.898 256.891 273.667 256.463 273.204C256.039 272.741 255.826 272.039 255.826 271.098C255.826 270.356 255.968 269.695 256.251 269.113C256.534 268.528 256.912 268.067 257.387 267.73C257.861 267.39 258.448 267.22 259.148 267.22C259.351 267.22 259.657 267.241 260.066 267.283C260.127 267.291 260.219 267.3 260.341 267.312V264.46H261.414V273.72H260.341V272.28ZM260.341 271.012V268.264C259.963 268.165 259.611 268.115 259.286 268.115C258.628 268.115 258.079 268.369 257.639 268.878C257.203 269.387 256.985 270.079 256.985 270.955C256.985 271.59 257.104 272.07 257.341 272.395C257.582 272.716 257.855 272.877 258.161 272.877C258.494 272.877 258.861 272.709 259.263 272.372C259.664 272.035 260.024 271.582 260.341 271.012ZM268.448 273.296C267.595 273.701 266.788 273.904 266.027 273.904C265.45 273.904 264.933 273.76 264.478 273.474C264.023 273.187 263.658 272.777 263.382 272.246C263.111 271.71 262.975 271.138 262.975 270.53C262.975 269.945 263.105 269.383 263.365 268.844C263.625 268.304 263.989 267.885 264.455 267.587C264.922 267.285 265.442 267.134 266.016 267.134C266.777 267.134 267.387 267.405 267.846 267.948C268.309 268.492 268.54 269.329 268.54 270.461V270.691H264.122C264.122 271.135 264.214 271.54 264.398 271.907C264.585 272.274 264.83 272.55 265.132 272.733C265.434 272.917 265.779 273.009 266.165 273.009C266.853 273.009 267.614 272.779 268.448 272.32V273.296ZM264.185 269.893H267.381V269.739C267.381 269.215 267.253 268.798 266.997 268.488C266.74 268.178 266.398 268.023 265.97 268.023C265.538 268.023 265.163 268.182 264.845 268.499C264.532 268.813 264.312 269.278 264.185 269.893ZM270.72 273.72V267.312H271.787V268.712C272.12 268.184 272.501 267.79 272.929 267.53C273.361 267.266 273.841 267.134 274.369 267.134C274.756 267.134 275.142 267.193 275.528 267.312V269.624H274.501V268.161C274.321 268.13 274.18 268.115 274.077 268.115C273.679 268.115 273.289 268.272 272.906 268.585C272.524 268.899 272.151 269.369 271.787 269.997V273.72H270.72ZM282.493 275.854C281.434 275.789 280.541 275.489 279.814 274.954C279.087 274.422 278.506 273.703 278.07 272.797C277.638 271.89 277.421 270.982 277.421 270.071C277.421 269.161 277.638 268.253 278.07 267.346C278.506 266.44 279.087 265.72 279.814 265.189C280.541 264.653 281.434 264.351 282.493 264.282V265.177C281.694 265.25 281.005 265.52 280.428 265.986C279.854 266.449 279.403 267.04 279.074 267.759C278.745 268.478 278.58 269.249 278.58 270.071C278.58 270.894 278.745 271.664 279.074 272.383C279.403 273.102 279.854 273.693 280.428 274.156C281.005 274.619 281.694 274.889 282.493 274.965V275.854ZM285.781 273.72V268.734H284.358V267.845H285.781V267.547C285.781 266.702 285.876 266.076 286.068 265.671C286.259 265.265 286.553 264.933 286.951 264.672C287.353 264.412 287.882 264.282 288.54 264.282C289.038 264.282 289.542 264.334 290.055 264.437V265.453C289.5 265.269 289.009 265.177 288.581 265.177C288.24 265.177 287.94 265.24 287.68 265.367C287.42 265.493 287.215 265.699 287.066 265.986C286.921 266.269 286.848 266.751 286.848 267.432V267.845H289.389V268.734H286.848V273.72H285.781ZM293.142 273.72V268.201H291.363V267.312H294.209V272.831H295.993V273.72H293.142ZM292.964 265C292.964 264.759 293.046 264.579 293.211 264.46C293.375 264.342 293.53 264.282 293.675 264.282C293.824 264.282 293.981 264.342 294.146 264.46C294.31 264.579 294.392 264.759 294.392 265C294.392 265.237 294.31 265.415 294.146 265.533C293.981 265.652 293.824 265.711 293.675 265.711C293.53 265.711 293.375 265.652 293.211 265.533C293.046 265.415 292.964 265.237 292.964 265ZM300.124 273.72V265.355H298.208V264.46H301.191V272.831H303.193V273.72H300.124ZM310.79 273.296C309.937 273.701 309.13 273.904 308.368 273.904C307.791 273.904 307.275 273.76 306.819 273.474C306.364 273.187 305.999 272.777 305.724 272.246C305.452 271.71 305.316 271.138 305.316 270.53C305.316 269.945 305.446 269.383 305.706 268.844C305.966 268.304 306.33 267.885 306.796 267.587C307.263 267.285 307.783 267.134 308.357 267.134C309.118 267.134 309.728 267.405 310.187 267.948C310.65 268.492 310.881 269.329 310.881 270.461V270.691H306.464C306.464 271.135 306.555 271.54 306.739 271.907C306.926 272.274 307.171 272.55 307.473 272.733C307.776 272.917 308.12 273.009 308.506 273.009C309.195 273.009 309.956 272.779 310.79 272.32V273.296ZM306.527 269.893H309.722V269.739C309.722 269.215 309.594 268.798 309.338 268.488C309.082 268.178 308.739 268.023 308.311 268.023C307.879 268.023 307.504 268.182 307.187 268.499C306.873 268.813 306.653 269.278 306.527 269.893ZM312.528 264.282C313.588 264.351 314.481 264.653 315.207 265.189C315.934 265.72 316.514 266.44 316.946 267.346C317.382 268.253 317.6 269.161 317.6 270.071C317.6 270.982 317.382 271.89 316.946 272.797C316.514 273.703 315.934 274.422 315.207 274.954C314.481 275.489 313.588 275.789 312.528 275.854V274.965C313.327 274.889 314.014 274.619 314.588 274.156C315.165 273.693 315.619 273.102 315.947 272.383C316.28 271.664 316.447 270.894 316.447 270.071C316.447 269.249 316.28 268.478 315.947 267.759C315.619 267.04 315.165 266.449 314.588 265.986C314.014 265.52 313.327 265.25 312.528 265.177V264.282Z" fill="#5A5A5A"/>
<path d="M54.353 215.495H51.2863V223.72H52.9078V221.018H54.353C55.9393 221.018 57.1613 219.796 57.1613 218.256C57.1613 216.717 55.9393 215.495 54.353 215.495ZM54.353 219.502H52.9078V217.011H54.353C55.0463 217.011 55.5515 217.54 55.5515 218.256C55.5515 218.961 55.0463 219.502 54.353 219.502ZM62.7289 223.72H64.4797L62.6584 220.618C63.5984 220.183 64.2447 219.255 64.2447 218.221C64.2447 216.717 63.0227 215.495 61.5069 215.495H58.2169V223.72H59.8384V220.865H61.0722L62.7289 223.72ZM59.8384 217.011H61.5069C62.1179 217.011 62.6232 217.54 62.6232 218.221C62.6232 218.903 62.1179 219.443 61.5069 219.443H59.8384V217.011ZM69.2319 223.885C71.6054 223.885 73.5089 222.005 73.5089 219.608C73.5089 217.199 71.6054 215.331 69.2319 215.331C66.8584 215.331 64.9667 217.199 64.9667 219.608C64.9667 222.005 66.8584 223.885 69.2319 223.885ZM69.2319 222.298C67.7397 222.298 66.5764 221.182 66.5764 219.608C66.5764 218.021 67.7397 216.905 69.2319 216.905C70.7242 216.905 71.8874 218.021 71.8874 219.608C71.8874 221.182 70.7242 222.298 69.2319 222.298ZM77.7153 215.495H74.6486V223.72H76.2701V221.018H77.7153C79.3016 221.018 80.5236 219.796 80.5236 218.256C80.5236 216.717 79.3016 215.495 77.7153 215.495ZM77.7153 219.502H76.2701V217.011H77.7153C78.4086 217.011 78.9138 217.54 78.9138 218.256C78.9138 218.961 78.4086 219.502 77.7153 219.502ZM83.2007 222.169V220.324H86.3145V218.797H83.2007V217.046H86.6082V215.495H81.5792V223.72H86.667V222.169H83.2007ZM92.322 223.72H94.0727L92.2515 220.618C93.1915 220.183 93.8377 219.255 93.8377 218.221C93.8377 216.717 92.6157 215.495 91.1 215.495H87.81V223.72H89.4315V220.865H90.6652L92.322 223.72ZM89.4315 217.011H91.1C91.711 217.011 92.2162 217.54 92.2162 218.221C92.2162 218.903 91.711 219.443 91.1 219.443H89.4315V217.011ZM100.296 215.495H94.2444V217.046H96.4534V223.72H98.0749V217.046H100.296V215.495ZM107.71 215.495H105.877L104.091 218.926L102.305 215.495H100.472L103.281 220.512V223.72H104.89V220.512L107.71 215.495ZM114.503 215.495H111.436V223.72H113.058V221.018H114.503C116.089 221.018 117.311 219.796 117.311 218.256C117.311 216.717 116.089 215.495 114.503 215.495ZM114.503 219.502H113.058V217.011H114.503C115.196 217.011 115.701 217.54 115.701 218.256C115.701 218.961 115.196 219.502 114.503 219.502ZM122.199 223.885C124.572 223.885 126.476 222.005 126.476 219.608C126.476 217.199 124.572 215.331 122.199 215.331C119.825 215.331 117.933 217.199 117.933 219.608C117.933 222.005 119.825 223.885 122.199 223.885ZM122.199 222.298C120.706 222.298 119.543 221.182 119.543 219.608C119.543 218.021 120.706 216.905 122.199 216.905C123.691 216.905 124.854 218.021 124.854 219.608C124.854 221.182 123.691 222.298 122.199 222.298ZM129.237 222.169V215.495H127.615V223.72H132.374V222.169H129.237ZM133.295 215.495V223.72H134.917V215.495H133.295ZM140.34 223.885C141.856 223.885 143.184 223.121 143.877 221.946L142.479 221.135C142.091 221.852 141.28 222.298 140.34 222.298C138.731 222.298 137.673 221.182 137.673 219.608C137.673 218.021 138.731 216.905 140.34 216.905C141.28 216.905 142.079 217.352 142.479 218.08L143.877 217.269C143.172 216.094 141.844 215.331 140.34 215.331C137.849 215.331 136.063 217.199 136.063 219.608C136.063 222.005 137.849 223.885 140.34 223.885ZM144.873 215.495V223.72H146.495V215.495H144.873ZM149.639 222.169V220.324H152.752V218.797H149.639V217.046H153.046V215.495H148.017V223.72H153.105V222.169H149.639ZM157.056 223.885C158.807 223.885 160.041 222.945 160.041 221.405C160.041 219.725 158.654 219.29 157.35 218.879C156.104 218.503 155.787 218.233 155.787 217.728C155.787 217.258 156.187 216.905 156.868 216.905C157.702 216.905 158.149 217.34 158.443 217.963L159.806 217.175C159.253 216.024 158.219 215.331 156.868 215.331C155.458 215.331 154.166 216.224 154.166 217.775C154.166 219.337 155.388 219.866 156.645 220.23C157.867 220.583 158.419 220.818 158.419 221.429C158.419 221.887 158.078 222.298 157.103 222.298C156.081 222.298 155.505 221.805 155.211 221.041L153.825 221.852C154.271 223.074 155.376 223.885 157.056 223.885Z" fill="#9494A7"/>
<defs>
<filter id="filter0_d_1_1537" x="-1.71661e-05" y="4.81606e-05" width="517.879" height="359.879" filterUnits="userSpaceOnUse" color-interpolation-filters="sRGB">
<feFlood flood-opacity="0" result="BackgroundImageFix"/>
<feColorMatrix in="SourceAlpha" type="matrix" values="0 0 0 0 0 0 0 0 0 0 0 0 0 0 0 0 0 0 127 0" result="hardAlpha"/>
<feOffset dy="7.21918"/>
<feGaussianBlur stdDeviation="15.4697"/>
<feColorMatrix type="matrix" values="0 0 0 0 0.0705882 0 0 0 0 0.0666667 0 0 0 0 0.152941 0 0 0 0.12 0"/>
<feBlend mode="normal" in2="BackgroundImageFix" result="effect1_dropShadow_1_1537"/>
<feBlend mode="normal" in="SourceGraphic" in2="effect1_dropShadow_1_1537" result="shape"/>
</filter>
<filter id="filter1_d_1_1537" x="30.9393" y="46.7202" width="456" height="47.9792" filterUnits="userSpaceOnUse" color-interpolation-filters="sRGB">
<feFlood flood-opacity="0" result="BackgroundImageFix"/>
<feColorMatrix in="SourceAlpha" type="matrix" values="0 0 0 0 0 0 0 0 0 0 0 0 0 0 0 0 0 0 127 0" result="hardAlpha"/>
<feOffset dy="0.979167"/>
<feColorMatrix type="matrix" values="0 0 0 0 0 0 0 0 0 0 0 0 0 0 0 0 0 0 0.06 0"/>
<feBlend mode="normal" in2="BackgroundImageFix" result="effect1_dropShadow_1_1537"/>
<feBlend mode="normal" in="SourceGraphic" in2="effect1_dropShadow_1_1537" result="shape"/>
</filter>
</defs>
</svg>
