<svg width="24" height="24" viewBox="0 0 24 24" fill="none" xmlns="http://www.w3.org/2000/svg">
<path fill-rule="evenodd" clip-rule="evenodd" d="M12 0C5.4 0 0 5.4 0 12C0 17.325 3.45 21.825 8.175 23.4C8.775 23.475 9 23.175 9 22.8C9 22.5 9 21.75 9 20.775C5.625 21.525 4.95 19.2 4.95 19.2C4.425 17.85 3.6 17.475 3.6 17.475C2.475 16.725 3.675 16.725 3.675 16.725C4.875 16.8 5.55 17.925 5.55 17.925C6.6 19.725 8.325 19.2 9.075 18.9C9.15 18.15 9.525 17.625 9.825 17.325C7.125 17.025 4.35 15.975 4.35 11.4C4.35 10.125 4.8 9 5.55 8.175C5.4 7.875 5.025 6.675 5.7 5.025C5.7 5.025 6.675 4.725 9 6.225C9.975 5.925 10.95 5.85 12 5.85C13.05 5.85 14.025 6 15 6.225C17.325 4.65 18.3 4.95 18.3 4.95C18.975 6.6 18.525 7.8 18.45 8.1C19.2 8.925 19.65 9.975 19.65 11.325C19.65 15.9 16.875 16.95 14.175 17.25C14.625 17.625 15 18.375 15 19.5C15 21.075 15 22.425 15 22.8C15 23.1 15.225 23.475 15.825 23.4C20.55 21.825 24 17.325 24 12C24 5.4 18.6 0 12 0Z" fill="#121127" fill-opacity="0.32"/>
</svg>
